%TF.GenerationSoftware,KiCad,Pcbnew,(6.0.0-0)*%
%TF.CreationDate,2022-01-16T08:25:23+00:00*%
%TF.ProjectId,curly-memory-face-plate,6375726c-792d-46d6-956d-6f72792d6661,rev?*%
%TF.SameCoordinates,Original*%
%TF.FileFunction,Legend,Top*%
%TF.FilePolarity,Positive*%
%FSLAX46Y46*%
G04 Gerber Fmt 4.6, Leading zero omitted, Abs format (unit mm)*
G04 Created by KiCad (PCBNEW (6.0.0-0)) date 2022-01-16 08:25:23*
%MOMM*%
%LPD*%
G01*
G04 APERTURE LIST*
%ADD10C,0.150000*%
%ADD11C,0.075000*%
%ADD12C,2.575000*%
%ADD13O,2.500000X1.600000*%
%ADD14C,6.100000*%
%ADD15C,6.500000*%
%ADD16C,3.350000*%
G04 APERTURE END LIST*
D10*
X2879285Y-79682500D02*
X2522142Y-79932500D01*
X2879285Y-80111071D02*
X2129285Y-80111071D01*
X2129285Y-79825357D01*
X2165000Y-79753928D01*
X2200714Y-79718214D01*
X2272142Y-79682500D01*
X2379285Y-79682500D01*
X2450714Y-79718214D01*
X2486428Y-79753928D01*
X2522142Y-79825357D01*
X2522142Y-80111071D01*
X2486428Y-79361071D02*
X2486428Y-79111071D01*
X2879285Y-79003928D02*
X2879285Y-79361071D01*
X2129285Y-79361071D01*
X2129285Y-79003928D01*
X2843571Y-78718214D02*
X2879285Y-78611071D01*
X2879285Y-78432500D01*
X2843571Y-78361071D01*
X2807857Y-78325357D01*
X2736428Y-78289642D01*
X2665000Y-78289642D01*
X2593571Y-78325357D01*
X2557857Y-78361071D01*
X2522142Y-78432500D01*
X2486428Y-78575357D01*
X2450714Y-78646785D01*
X2415000Y-78682500D01*
X2343571Y-78718214D01*
X2272142Y-78718214D01*
X2200714Y-78682500D01*
X2165000Y-78646785D01*
X2129285Y-78575357D01*
X2129285Y-78396785D01*
X2165000Y-78289642D01*
X2665000Y-77432500D02*
X2665000Y-77075357D01*
X2879285Y-77503928D02*
X2129285Y-77253928D01*
X2879285Y-77003928D01*
X24749285Y-80039642D02*
X24749285Y-79896785D01*
X24785000Y-79825357D01*
X24856428Y-79753928D01*
X24999285Y-79718214D01*
X25249285Y-79718214D01*
X25392142Y-79753928D01*
X25463571Y-79825357D01*
X25499285Y-79896785D01*
X25499285Y-80039642D01*
X25463571Y-80111071D01*
X25392142Y-80182500D01*
X25249285Y-80218214D01*
X24999285Y-80218214D01*
X24856428Y-80182500D01*
X24785000Y-80111071D01*
X24749285Y-80039642D01*
X24749285Y-79396785D02*
X25356428Y-79396785D01*
X25427857Y-79361071D01*
X25463571Y-79325357D01*
X25499285Y-79253928D01*
X25499285Y-79111071D01*
X25463571Y-79039642D01*
X25427857Y-79003928D01*
X25356428Y-78968214D01*
X24749285Y-78968214D01*
X24749285Y-78718214D02*
X24749285Y-78289642D01*
X25499285Y-78503928D02*
X24749285Y-78503928D01*
X24820714Y-77503928D02*
X24785000Y-77468214D01*
X24749285Y-77396785D01*
X24749285Y-77218214D01*
X24785000Y-77146785D01*
X24820714Y-77111071D01*
X24892142Y-77075357D01*
X24963571Y-77075357D01*
X25070714Y-77111071D01*
X25499285Y-77539642D01*
X25499285Y-77075357D01*
X5642857Y-99302380D02*
X5833333Y-99302380D01*
X5928571Y-99350000D01*
X6023809Y-99445238D01*
X6071428Y-99635714D01*
X6071428Y-99969047D01*
X6023809Y-100159523D01*
X5928571Y-100254761D01*
X5833333Y-100302380D01*
X5642857Y-100302380D01*
X5547619Y-100254761D01*
X5452380Y-100159523D01*
X5404761Y-99969047D01*
X5404761Y-99635714D01*
X5452380Y-99445238D01*
X5547619Y-99350000D01*
X5642857Y-99302380D01*
X6500000Y-99302380D02*
X6500000Y-100111904D01*
X6547619Y-100207142D01*
X6595238Y-100254761D01*
X6690476Y-100302380D01*
X6880952Y-100302380D01*
X6976190Y-100254761D01*
X7023809Y-100207142D01*
X7071428Y-100111904D01*
X7071428Y-99302380D01*
X7404761Y-99302380D02*
X7976190Y-99302380D01*
X7690476Y-100302380D02*
X7690476Y-99302380D01*
X9023809Y-99397619D02*
X9071428Y-99350000D01*
X9166666Y-99302380D01*
X9404761Y-99302380D01*
X9500000Y-99350000D01*
X9547619Y-99397619D01*
X9595238Y-99492857D01*
X9595238Y-99588095D01*
X9547619Y-99730952D01*
X8976190Y-100302380D01*
X9595238Y-100302380D01*
X5419285Y-72011071D02*
X5062142Y-72261071D01*
X5419285Y-72439642D02*
X4669285Y-72439642D01*
X4669285Y-72153928D01*
X4705000Y-72082500D01*
X4740714Y-72046785D01*
X4812142Y-72011071D01*
X4919285Y-72011071D01*
X4990714Y-72046785D01*
X5026428Y-72082500D01*
X5062142Y-72153928D01*
X5062142Y-72439642D01*
X5383571Y-71725357D02*
X5419285Y-71618214D01*
X5419285Y-71439642D01*
X5383571Y-71368214D01*
X5347857Y-71332500D01*
X5276428Y-71296785D01*
X5205000Y-71296785D01*
X5133571Y-71332500D01*
X5097857Y-71368214D01*
X5062142Y-71439642D01*
X5026428Y-71582500D01*
X4990714Y-71653928D01*
X4955000Y-71689642D01*
X4883571Y-71725357D01*
X4812142Y-71725357D01*
X4740714Y-71689642D01*
X4705000Y-71653928D01*
X4669285Y-71582500D01*
X4669285Y-71403928D01*
X4705000Y-71296785D01*
X4669285Y-71082500D02*
X4669285Y-70653928D01*
X5419285Y-70868214D02*
X4669285Y-70868214D01*
X6119047Y-41002380D02*
X6119047Y-40002380D01*
X6595238Y-41002380D02*
X6595238Y-40002380D01*
X7166666Y-41002380D01*
X7166666Y-40002380D01*
X8595238Y-40002380D02*
X8690476Y-40002380D01*
X8785714Y-40050000D01*
X8833333Y-40097619D01*
X8880952Y-40192857D01*
X8928571Y-40383333D01*
X8928571Y-40621428D01*
X8880952Y-40811904D01*
X8833333Y-40907142D01*
X8785714Y-40954761D01*
X8690476Y-41002380D01*
X8595238Y-41002380D01*
X8500000Y-40954761D01*
X8452380Y-40907142D01*
X8404761Y-40811904D01*
X8357142Y-40621428D01*
X8357142Y-40383333D01*
X8404761Y-40192857D01*
X8452380Y-40097619D01*
X8500000Y-40050000D01*
X8595238Y-40002380D01*
X28039285Y-72975357D02*
X27289285Y-72975357D01*
X27289285Y-72475357D02*
X27289285Y-72332500D01*
X27325000Y-72261071D01*
X27396428Y-72189642D01*
X27539285Y-72153928D01*
X27789285Y-72153928D01*
X27932142Y-72189642D01*
X28003571Y-72261071D01*
X28039285Y-72332500D01*
X28039285Y-72475357D01*
X28003571Y-72546785D01*
X27932142Y-72618214D01*
X27789285Y-72653928D01*
X27539285Y-72653928D01*
X27396428Y-72618214D01*
X27325000Y-72546785D01*
X27289285Y-72475357D01*
X27360714Y-71868214D02*
X27325000Y-71832500D01*
X27289285Y-71761071D01*
X27289285Y-71582500D01*
X27325000Y-71511071D01*
X27360714Y-71475357D01*
X27432142Y-71439642D01*
X27503571Y-71439642D01*
X27610714Y-71475357D01*
X28039285Y-71903928D01*
X28039285Y-71439642D01*
X27360714Y-71153928D02*
X27325000Y-71118214D01*
X27289285Y-71046785D01*
X27289285Y-70868214D01*
X27325000Y-70796785D01*
X27360714Y-70761071D01*
X27432142Y-70725357D01*
X27503571Y-70725357D01*
X27610714Y-70761071D01*
X28039285Y-71189642D01*
X28039285Y-70725357D01*
X22264761Y-12102380D02*
X21931428Y-11626190D01*
X21693333Y-12102380D02*
X21693333Y-11102380D01*
X22074285Y-11102380D01*
X22169523Y-11150000D01*
X22217142Y-11197619D01*
X22264761Y-11292857D01*
X22264761Y-11435714D01*
X22217142Y-11530952D01*
X22169523Y-11578571D01*
X22074285Y-11626190D01*
X21693333Y-11626190D01*
X22550476Y-11102380D02*
X22883809Y-12102380D01*
X23217142Y-11102380D01*
X23502857Y-11197619D02*
X23550476Y-11150000D01*
X23645714Y-11102380D01*
X23883809Y-11102380D01*
X23979047Y-11150000D01*
X24026666Y-11197619D01*
X24074285Y-11292857D01*
X24074285Y-11388095D01*
X24026666Y-11530952D01*
X23455238Y-12102380D01*
X24074285Y-12102380D01*
X7024761Y-26802380D02*
X6691428Y-26326190D01*
X6453333Y-26802380D02*
X6453333Y-25802380D01*
X6834285Y-25802380D01*
X6929523Y-25850000D01*
X6977142Y-25897619D01*
X7024761Y-25992857D01*
X7024761Y-26135714D01*
X6977142Y-26230952D01*
X6929523Y-26278571D01*
X6834285Y-26326190D01*
X6453333Y-26326190D01*
X7310476Y-25802380D02*
X7643809Y-26802380D01*
X7977142Y-25802380D01*
X8215238Y-25802380D02*
X8834285Y-25802380D01*
X8500952Y-26183333D01*
X8643809Y-26183333D01*
X8739047Y-26230952D01*
X8786666Y-26278571D01*
X8834285Y-26373809D01*
X8834285Y-26611904D01*
X8786666Y-26707142D01*
X8739047Y-26754761D01*
X8643809Y-26802380D01*
X8358095Y-26802380D01*
X8262857Y-26754761D01*
X8215238Y-26707142D01*
X5642857Y-89402380D02*
X5833333Y-89402380D01*
X5928571Y-89450000D01*
X6023809Y-89545238D01*
X6071428Y-89735714D01*
X6071428Y-90069047D01*
X6023809Y-90259523D01*
X5928571Y-90354761D01*
X5833333Y-90402380D01*
X5642857Y-90402380D01*
X5547619Y-90354761D01*
X5452380Y-90259523D01*
X5404761Y-90069047D01*
X5404761Y-89735714D01*
X5452380Y-89545238D01*
X5547619Y-89450000D01*
X5642857Y-89402380D01*
X6500000Y-89402380D02*
X6500000Y-90211904D01*
X6547619Y-90307142D01*
X6595238Y-90354761D01*
X6690476Y-90402380D01*
X6880952Y-90402380D01*
X6976190Y-90354761D01*
X7023809Y-90307142D01*
X7071428Y-90211904D01*
X7071428Y-89402380D01*
X7404761Y-89402380D02*
X7976190Y-89402380D01*
X7690476Y-90402380D02*
X7690476Y-89402380D01*
X9261904Y-89402380D02*
X9357142Y-89402380D01*
X9452380Y-89450000D01*
X9500000Y-89497619D01*
X9547619Y-89592857D01*
X9595238Y-89783333D01*
X9595238Y-90021428D01*
X9547619Y-90211904D01*
X9500000Y-90307142D01*
X9452380Y-90354761D01*
X9357142Y-90402380D01*
X9261904Y-90402380D01*
X9166666Y-90354761D01*
X9119047Y-90307142D01*
X9071428Y-90211904D01*
X9023809Y-90021428D01*
X9023809Y-89783333D01*
X9071428Y-89592857D01*
X9119047Y-89497619D01*
X9166666Y-89450000D01*
X9261904Y-89402380D01*
X3482142Y-58620428D02*
X3589285Y-58656142D01*
X3625000Y-58691857D01*
X3660714Y-58763285D01*
X3660714Y-58870428D01*
X3625000Y-58941857D01*
X3589285Y-58977571D01*
X3517857Y-59013285D01*
X3232142Y-59013285D01*
X3232142Y-58263285D01*
X3482142Y-58263285D01*
X3553571Y-58299000D01*
X3589285Y-58334714D01*
X3625000Y-58406142D01*
X3625000Y-58477571D01*
X3589285Y-58549000D01*
X3553571Y-58584714D01*
X3482142Y-58620428D01*
X3232142Y-58620428D01*
X4125000Y-58263285D02*
X4267857Y-58263285D01*
X4339285Y-58299000D01*
X4410714Y-58370428D01*
X4446428Y-58513285D01*
X4446428Y-58763285D01*
X4410714Y-58906142D01*
X4339285Y-58977571D01*
X4267857Y-59013285D01*
X4125000Y-59013285D01*
X4053571Y-58977571D01*
X3982142Y-58906142D01*
X3946428Y-58763285D01*
X3946428Y-58513285D01*
X3982142Y-58370428D01*
X4053571Y-58299000D01*
X4125000Y-58263285D01*
X4910714Y-58263285D02*
X5053571Y-58263285D01*
X5125000Y-58299000D01*
X5196428Y-58370428D01*
X5232142Y-58513285D01*
X5232142Y-58763285D01*
X5196428Y-58906142D01*
X5125000Y-58977571D01*
X5053571Y-59013285D01*
X4910714Y-59013285D01*
X4839285Y-58977571D01*
X4767857Y-58906142D01*
X4732142Y-58763285D01*
X4732142Y-58513285D01*
X4767857Y-58370428D01*
X4839285Y-58299000D01*
X4910714Y-58263285D01*
X5446428Y-58263285D02*
X5875000Y-58263285D01*
X5660714Y-59013285D02*
X5660714Y-58263285D01*
X12325000Y-72296785D02*
X12289285Y-72368214D01*
X12289285Y-72475357D01*
X12325000Y-72582500D01*
X12396428Y-72653928D01*
X12467857Y-72689642D01*
X12610714Y-72725357D01*
X12717857Y-72725357D01*
X12860714Y-72689642D01*
X12932142Y-72653928D01*
X13003571Y-72582500D01*
X13039285Y-72475357D01*
X13039285Y-72403928D01*
X13003571Y-72296785D01*
X12967857Y-72261071D01*
X12717857Y-72261071D01*
X12717857Y-72403928D01*
X13039285Y-71939642D02*
X12289285Y-71939642D01*
X13039285Y-71511071D01*
X12289285Y-71511071D01*
X13039285Y-71153928D02*
X12289285Y-71153928D01*
X12289285Y-70975357D01*
X12325000Y-70868214D01*
X12396428Y-70796785D01*
X12467857Y-70761071D01*
X12610714Y-70725357D01*
X12717857Y-70725357D01*
X12860714Y-70761071D01*
X12932142Y-70796785D01*
X13003571Y-70868214D01*
X13039285Y-70975357D01*
X13039285Y-71153928D01*
X14928571Y-104887380D02*
X14928571Y-104220714D01*
X14928571Y-104411190D02*
X14976190Y-104315952D01*
X15023809Y-104268333D01*
X15119047Y-104220714D01*
X15214285Y-104220714D01*
X14809523Y-105830714D02*
X15190476Y-105830714D01*
X14952380Y-106497380D02*
X14952380Y-105640238D01*
X15000000Y-105545000D01*
X15095238Y-105497380D01*
X15190476Y-105497380D01*
X15190476Y-108059761D02*
X15095238Y-108107380D01*
X14904761Y-108107380D01*
X14809523Y-108059761D01*
X14761904Y-107964523D01*
X14761904Y-107583571D01*
X14809523Y-107488333D01*
X14904761Y-107440714D01*
X15095238Y-107440714D01*
X15190476Y-107488333D01*
X15238095Y-107583571D01*
X15238095Y-107678809D01*
X14761904Y-107774047D01*
X19523809Y-100302380D02*
X19523809Y-99302380D01*
X19761904Y-99302380D01*
X19904761Y-99350000D01*
X20000000Y-99445238D01*
X20047619Y-99540476D01*
X20095238Y-99730952D01*
X20095238Y-99873809D01*
X20047619Y-100064285D01*
X20000000Y-100159523D01*
X19904761Y-100254761D01*
X19761904Y-100302380D01*
X19523809Y-100302380D01*
X21095238Y-100302380D02*
X20761904Y-99826190D01*
X20523809Y-100302380D02*
X20523809Y-99302380D01*
X20904761Y-99302380D01*
X21000000Y-99350000D01*
X21047619Y-99397619D01*
X21095238Y-99492857D01*
X21095238Y-99635714D01*
X21047619Y-99730952D01*
X21000000Y-99778571D01*
X20904761Y-99826190D01*
X20523809Y-99826190D01*
X21714285Y-99826190D02*
X21714285Y-100302380D01*
X21380952Y-99302380D02*
X21714285Y-99826190D01*
X22047619Y-99302380D01*
X23047619Y-99302380D02*
X23285714Y-100302380D01*
X23476190Y-99588095D01*
X23666666Y-100302380D01*
X23904761Y-99302380D01*
X24285714Y-99778571D02*
X24619047Y-99778571D01*
X24761904Y-100302380D02*
X24285714Y-100302380D01*
X24285714Y-99302380D01*
X24761904Y-99302380D01*
X25047619Y-99302380D02*
X25619047Y-99302380D01*
X25333333Y-100302380D02*
X25333333Y-99302380D01*
X17879285Y-79182500D02*
X17129285Y-79182500D01*
X17879285Y-78825357D02*
X17129285Y-78825357D01*
X17879285Y-78396785D01*
X17129285Y-78396785D01*
X17129285Y-77539642D02*
X17129285Y-77075357D01*
X17415000Y-77325357D01*
X17415000Y-77218214D01*
X17450714Y-77146785D01*
X17486428Y-77111071D01*
X17557857Y-77075357D01*
X17736428Y-77075357D01*
X17807857Y-77111071D01*
X17843571Y-77146785D01*
X17879285Y-77218214D01*
X17879285Y-77432500D01*
X17843571Y-77503928D01*
X17807857Y-77539642D01*
X19669285Y-72546785D02*
X19669285Y-72082500D01*
X19955000Y-72332500D01*
X19955000Y-72225357D01*
X19990714Y-72153928D01*
X20026428Y-72118214D01*
X20097857Y-72082500D01*
X20276428Y-72082500D01*
X20347857Y-72118214D01*
X20383571Y-72153928D01*
X20419285Y-72225357D01*
X20419285Y-72439642D01*
X20383571Y-72511071D01*
X20347857Y-72546785D01*
X19669285Y-71868214D02*
X20419285Y-71618214D01*
X19669285Y-71368214D01*
X19669285Y-71189642D02*
X19669285Y-70725357D01*
X19955000Y-70975357D01*
X19955000Y-70868214D01*
X19990714Y-70796785D01*
X20026428Y-70761071D01*
X20097857Y-70725357D01*
X20276428Y-70725357D01*
X20347857Y-70761071D01*
X20383571Y-70796785D01*
X20419285Y-70868214D01*
X20419285Y-71082500D01*
X20383571Y-71153928D01*
X20347857Y-71189642D01*
X22959285Y-79182500D02*
X22209285Y-79182500D01*
X22959285Y-78825357D02*
X22209285Y-78825357D01*
X22959285Y-78396785D01*
X22209285Y-78396785D01*
X22280714Y-77503928D02*
X22245000Y-77468214D01*
X22209285Y-77396785D01*
X22209285Y-77218214D01*
X22245000Y-77146785D01*
X22280714Y-77111071D01*
X22352142Y-77075357D01*
X22423571Y-77075357D01*
X22530714Y-77111071D01*
X22959285Y-77539642D01*
X22959285Y-77075357D01*
X11089285Y-59013285D02*
X10839285Y-58656142D01*
X10660714Y-59013285D02*
X10660714Y-58263285D01*
X10946428Y-58263285D01*
X11017857Y-58299000D01*
X11053571Y-58334714D01*
X11089285Y-58406142D01*
X11089285Y-58513285D01*
X11053571Y-58584714D01*
X11017857Y-58620428D01*
X10946428Y-58656142D01*
X10660714Y-58656142D01*
X11375000Y-58977571D02*
X11482142Y-59013285D01*
X11660714Y-59013285D01*
X11732142Y-58977571D01*
X11767857Y-58941857D01*
X11803571Y-58870428D01*
X11803571Y-58799000D01*
X11767857Y-58727571D01*
X11732142Y-58691857D01*
X11660714Y-58656142D01*
X11517857Y-58620428D01*
X11446428Y-58584714D01*
X11410714Y-58549000D01*
X11375000Y-58477571D01*
X11375000Y-58406142D01*
X11410714Y-58334714D01*
X11446428Y-58299000D01*
X11517857Y-58263285D01*
X11696428Y-58263285D01*
X11803571Y-58299000D01*
X12017857Y-58263285D02*
X12446428Y-58263285D01*
X12232142Y-59013285D02*
X12232142Y-58263285D01*
X12325000Y-78646785D02*
X12289285Y-78718214D01*
X12289285Y-78825357D01*
X12325000Y-78932500D01*
X12396428Y-79003928D01*
X12467857Y-79039642D01*
X12610714Y-79075357D01*
X12717857Y-79075357D01*
X12860714Y-79039642D01*
X12932142Y-79003928D01*
X13003571Y-78932500D01*
X13039285Y-78825357D01*
X13039285Y-78753928D01*
X13003571Y-78646785D01*
X12967857Y-78611071D01*
X12717857Y-78611071D01*
X12717857Y-78753928D01*
X13039285Y-78289642D02*
X12289285Y-78289642D01*
X13039285Y-77861071D01*
X12289285Y-77861071D01*
X13039285Y-77503928D02*
X12289285Y-77503928D01*
X12289285Y-77325357D01*
X12325000Y-77218214D01*
X12396428Y-77146785D01*
X12467857Y-77111071D01*
X12610714Y-77075357D01*
X12717857Y-77075357D01*
X12860714Y-77111071D01*
X12932142Y-77146785D01*
X13003571Y-77218214D01*
X13039285Y-77325357D01*
X13039285Y-77503928D01*
X10547619Y7595238D02*
X10452380Y7547619D01*
X10261904Y7547619D01*
X10166666Y7595238D01*
X10119047Y7642857D01*
X10071428Y7738095D01*
X10071428Y8023809D01*
X10119047Y8119047D01*
X10166666Y8166666D01*
X10261904Y8214285D01*
X10452380Y8214285D01*
X10547619Y8166666D01*
X11404761Y8214285D02*
X11404761Y7547619D01*
X10976190Y8214285D02*
X10976190Y7690476D01*
X11023809Y7595238D01*
X11119047Y7547619D01*
X11261904Y7547619D01*
X11357142Y7595238D01*
X11404761Y7642857D01*
X11880952Y7547619D02*
X11880952Y8214285D01*
X11880952Y8023809D02*
X11928571Y8119047D01*
X11976190Y8166666D01*
X12071428Y8214285D01*
X12166666Y8214285D01*
X12642857Y7547619D02*
X12547619Y7595238D01*
X12500000Y7690476D01*
X12500000Y8547619D01*
X12928571Y8214285D02*
X13166666Y7547619D01*
X13404761Y8214285D02*
X13166666Y7547619D01*
X13071428Y7309523D01*
X13023809Y7261904D01*
X12928571Y7214285D01*
X14547619Y7547619D02*
X14547619Y8214285D01*
X14547619Y8119047D02*
X14595238Y8166666D01*
X14690476Y8214285D01*
X14833333Y8214285D01*
X14928571Y8166666D01*
X14976190Y8071428D01*
X14976190Y7547619D01*
X14976190Y8071428D02*
X15023809Y8166666D01*
X15119047Y8214285D01*
X15261904Y8214285D01*
X15357142Y8166666D01*
X15404761Y8071428D01*
X15404761Y7547619D01*
X16261904Y7595238D02*
X16166666Y7547619D01*
X15976190Y7547619D01*
X15880952Y7595238D01*
X15833333Y7690476D01*
X15833333Y8071428D01*
X15880952Y8166666D01*
X15976190Y8214285D01*
X16166666Y8214285D01*
X16261904Y8166666D01*
X16309523Y8071428D01*
X16309523Y7976190D01*
X15833333Y7880952D01*
X16738095Y7547619D02*
X16738095Y8214285D01*
X16738095Y8119047D02*
X16785714Y8166666D01*
X16880952Y8214285D01*
X17023809Y8214285D01*
X17119047Y8166666D01*
X17166666Y8071428D01*
X17166666Y7547619D01*
X17166666Y8071428D02*
X17214285Y8166666D01*
X17309523Y8214285D01*
X17452380Y8214285D01*
X17547619Y8166666D01*
X17595238Y8071428D01*
X17595238Y7547619D01*
X18214285Y7547619D02*
X18119047Y7595238D01*
X18071428Y7642857D01*
X18023809Y7738095D01*
X18023809Y8023809D01*
X18071428Y8119047D01*
X18119047Y8166666D01*
X18214285Y8214285D01*
X18357142Y8214285D01*
X18452380Y8166666D01*
X18500000Y8119047D01*
X18547619Y8023809D01*
X18547619Y7738095D01*
X18500000Y7642857D01*
X18452380Y7595238D01*
X18357142Y7547619D01*
X18214285Y7547619D01*
X18976190Y7547619D02*
X18976190Y8214285D01*
X18976190Y8023809D02*
X19023809Y8119047D01*
X19071428Y8166666D01*
X19166666Y8214285D01*
X19261904Y8214285D01*
X19500000Y8214285D02*
X19738095Y7547619D01*
X19976190Y8214285D02*
X19738095Y7547619D01*
X19642857Y7309523D01*
X19595238Y7261904D01*
X19500000Y7214285D01*
X7209285Y-71796785D02*
X7209285Y-71368214D01*
X7959285Y-71582500D02*
X7209285Y-71582500D01*
X7209285Y-71189642D02*
X7959285Y-70689642D01*
X7209285Y-70689642D02*
X7959285Y-71189642D01*
X17129285Y-71403928D02*
X17129285Y-71761071D01*
X17486428Y-71796785D01*
X17450714Y-71761071D01*
X17415000Y-71689642D01*
X17415000Y-71511071D01*
X17450714Y-71439642D01*
X17486428Y-71403928D01*
X17557857Y-71368214D01*
X17736428Y-71368214D01*
X17807857Y-71403928D01*
X17843571Y-71439642D01*
X17879285Y-71511071D01*
X17879285Y-71689642D01*
X17843571Y-71761071D01*
X17807857Y-71796785D01*
X17129285Y-71153928D02*
X17879285Y-70903928D01*
X17129285Y-70653928D01*
X24500000Y-58977571D02*
X24607142Y-59013285D01*
X24785714Y-59013285D01*
X24857142Y-58977571D01*
X24892857Y-58941857D01*
X24928571Y-58870428D01*
X24928571Y-58799000D01*
X24892857Y-58727571D01*
X24857142Y-58691857D01*
X24785714Y-58656142D01*
X24642857Y-58620428D01*
X24571428Y-58584714D01*
X24535714Y-58549000D01*
X24500000Y-58477571D01*
X24500000Y-58406142D01*
X24535714Y-58334714D01*
X24571428Y-58299000D01*
X24642857Y-58263285D01*
X24821428Y-58263285D01*
X24928571Y-58299000D01*
X25178571Y-58263285D02*
X25357142Y-59013285D01*
X25500000Y-58477571D01*
X25642857Y-59013285D01*
X25821428Y-58263285D01*
X26500000Y-59013285D02*
X26071428Y-59013285D01*
X26285714Y-59013285D02*
X26285714Y-58263285D01*
X26214285Y-58370428D01*
X26142857Y-58441857D01*
X26071428Y-58477571D01*
X10499285Y-79146785D02*
X10499285Y-79503928D01*
X9749285Y-79503928D01*
X10106428Y-78896785D02*
X10106428Y-78646785D01*
X10499285Y-78539642D02*
X10499285Y-78896785D01*
X9749285Y-78896785D01*
X9749285Y-78539642D01*
X10499285Y-78218214D02*
X9749285Y-78218214D01*
X9749285Y-78039642D01*
X9785000Y-77932500D01*
X9856428Y-77861071D01*
X9927857Y-77825357D01*
X10070714Y-77789642D01*
X10177857Y-77789642D01*
X10320714Y-77825357D01*
X10392142Y-77861071D01*
X10463571Y-77932500D01*
X10499285Y-78039642D01*
X10499285Y-78218214D01*
X10463571Y-77503928D02*
X10499285Y-77396785D01*
X10499285Y-77218214D01*
X10463571Y-77146785D01*
X10427857Y-77111071D01*
X10356428Y-77075357D01*
X10285000Y-77075357D01*
X10213571Y-77111071D01*
X10177857Y-77146785D01*
X10142142Y-77218214D01*
X10106428Y-77361071D01*
X10070714Y-77432500D01*
X10035000Y-77468214D01*
X9963571Y-77503928D01*
X9892142Y-77503928D01*
X9820714Y-77468214D01*
X9785000Y-77432500D01*
X9749285Y-77361071D01*
X9749285Y-77182500D01*
X9785000Y-77075357D01*
X22264761Y-26802380D02*
X21931428Y-26326190D01*
X21693333Y-26802380D02*
X21693333Y-25802380D01*
X22074285Y-25802380D01*
X22169523Y-25850000D01*
X22217142Y-25897619D01*
X22264761Y-25992857D01*
X22264761Y-26135714D01*
X22217142Y-26230952D01*
X22169523Y-26278571D01*
X22074285Y-26326190D01*
X21693333Y-26326190D01*
X22550476Y-25802380D02*
X22883809Y-26802380D01*
X23217142Y-25802380D01*
X23979047Y-26135714D02*
X23979047Y-26802380D01*
X23740952Y-25754761D02*
X23502857Y-26469047D01*
X24121904Y-26469047D01*
X6119047Y-51102380D02*
X6119047Y-50102380D01*
X6595238Y-51102380D02*
X6595238Y-50102380D01*
X7166666Y-51102380D01*
X7166666Y-50102380D01*
X8928571Y-51102380D02*
X8357142Y-51102380D01*
X8642857Y-51102380D02*
X8642857Y-50102380D01*
X8547619Y-50245238D01*
X8452380Y-50340476D01*
X8357142Y-50388095D01*
X27325000Y-78646785D02*
X27289285Y-78718214D01*
X27289285Y-78825357D01*
X27325000Y-78932500D01*
X27396428Y-79003928D01*
X27467857Y-79039642D01*
X27610714Y-79075357D01*
X27717857Y-79075357D01*
X27860714Y-79039642D01*
X27932142Y-79003928D01*
X28003571Y-78932500D01*
X28039285Y-78825357D01*
X28039285Y-78753928D01*
X28003571Y-78646785D01*
X27967857Y-78611071D01*
X27717857Y-78611071D01*
X27717857Y-78753928D01*
X28039285Y-78289642D02*
X27289285Y-78289642D01*
X28039285Y-77861071D01*
X27289285Y-77861071D01*
X28039285Y-77503928D02*
X27289285Y-77503928D01*
X27289285Y-77325357D01*
X27325000Y-77218214D01*
X27396428Y-77146785D01*
X27467857Y-77111071D01*
X27610714Y-77075357D01*
X27717857Y-77075357D01*
X27860714Y-77111071D01*
X27932142Y-77146785D01*
X28003571Y-77218214D01*
X28039285Y-77325357D01*
X28039285Y-77503928D01*
X2486428Y-73046785D02*
X2522142Y-72939642D01*
X2557857Y-72903928D01*
X2629285Y-72868214D01*
X2736428Y-72868214D01*
X2807857Y-72903928D01*
X2843571Y-72939642D01*
X2879285Y-73011071D01*
X2879285Y-73296785D01*
X2129285Y-73296785D01*
X2129285Y-73046785D01*
X2165000Y-72975357D01*
X2200714Y-72939642D01*
X2272142Y-72903928D01*
X2343571Y-72903928D01*
X2415000Y-72939642D01*
X2450714Y-72975357D01*
X2486428Y-73046785D01*
X2486428Y-73296785D01*
X2129285Y-72403928D02*
X2129285Y-72261071D01*
X2165000Y-72189642D01*
X2236428Y-72118214D01*
X2379285Y-72082500D01*
X2629285Y-72082500D01*
X2772142Y-72118214D01*
X2843571Y-72189642D01*
X2879285Y-72261071D01*
X2879285Y-72403928D01*
X2843571Y-72475357D01*
X2772142Y-72546785D01*
X2629285Y-72582500D01*
X2379285Y-72582500D01*
X2236428Y-72546785D01*
X2165000Y-72475357D01*
X2129285Y-72403928D01*
X2129285Y-71618214D02*
X2129285Y-71475357D01*
X2165000Y-71403928D01*
X2236428Y-71332500D01*
X2379285Y-71296785D01*
X2629285Y-71296785D01*
X2772142Y-71332500D01*
X2843571Y-71403928D01*
X2879285Y-71475357D01*
X2879285Y-71618214D01*
X2843571Y-71689642D01*
X2772142Y-71761071D01*
X2629285Y-71796785D01*
X2379285Y-71796785D01*
X2236428Y-71761071D01*
X2165000Y-71689642D01*
X2129285Y-71618214D01*
X2129285Y-71082500D02*
X2129285Y-70653928D01*
X2879285Y-70868214D02*
X2129285Y-70868214D01*
X7959285Y-79789642D02*
X7602142Y-80039642D01*
X7959285Y-80218214D02*
X7209285Y-80218214D01*
X7209285Y-79932500D01*
X7245000Y-79861071D01*
X7280714Y-79825357D01*
X7352142Y-79789642D01*
X7459285Y-79789642D01*
X7530714Y-79825357D01*
X7566428Y-79861071D01*
X7602142Y-79932500D01*
X7602142Y-80218214D01*
X7566428Y-79468214D02*
X7566428Y-79218214D01*
X7959285Y-79111071D02*
X7959285Y-79468214D01*
X7209285Y-79468214D01*
X7209285Y-79111071D01*
X7923571Y-78825357D02*
X7959285Y-78718214D01*
X7959285Y-78539642D01*
X7923571Y-78468214D01*
X7887857Y-78432500D01*
X7816428Y-78396785D01*
X7745000Y-78396785D01*
X7673571Y-78432500D01*
X7637857Y-78468214D01*
X7602142Y-78539642D01*
X7566428Y-78682500D01*
X7530714Y-78753928D01*
X7495000Y-78789642D01*
X7423571Y-78825357D01*
X7352142Y-78825357D01*
X7280714Y-78789642D01*
X7245000Y-78753928D01*
X7209285Y-78682500D01*
X7209285Y-78503928D01*
X7245000Y-78396785D01*
X7566428Y-77253928D02*
X7602142Y-77146785D01*
X7637857Y-77111071D01*
X7709285Y-77075357D01*
X7816428Y-77075357D01*
X7887857Y-77111071D01*
X7923571Y-77146785D01*
X7959285Y-77218214D01*
X7959285Y-77503928D01*
X7209285Y-77503928D01*
X7209285Y-77253928D01*
X7245000Y-77182500D01*
X7280714Y-77146785D01*
X7352142Y-77111071D01*
X7423571Y-77111071D01*
X7495000Y-77146785D01*
X7530714Y-77182500D01*
X7566428Y-77253928D01*
X7566428Y-77503928D01*
D11*
X22640952Y-72318066D02*
X22640952Y-72251400D01*
X22660000Y-72218066D01*
X22698095Y-72184733D01*
X22774285Y-72168066D01*
X22907619Y-72168066D01*
X22983809Y-72184733D01*
X23021904Y-72218066D01*
X23040952Y-72251400D01*
X23040952Y-72318066D01*
X23021904Y-72351400D01*
X22983809Y-72384733D01*
X22907619Y-72401400D01*
X22774285Y-72401400D01*
X22698095Y-72384733D01*
X22660000Y-72351400D01*
X22640952Y-72318066D01*
X22831428Y-71901400D02*
X22831428Y-72018066D01*
X23040952Y-72018066D02*
X22640952Y-72018066D01*
X22640952Y-71851400D01*
X22831428Y-71601400D02*
X22831428Y-71718066D01*
X23040952Y-71718066D02*
X22640952Y-71718066D01*
X22640952Y-71551400D01*
X23021904Y-71434733D02*
X23040952Y-71384733D01*
X23040952Y-71301400D01*
X23021904Y-71268066D01*
X23002857Y-71251400D01*
X22964761Y-71234733D01*
X22926666Y-71234733D01*
X22888571Y-71251400D01*
X22869523Y-71268066D01*
X22850476Y-71301400D01*
X22831428Y-71368066D01*
X22812380Y-71401400D01*
X22793333Y-71418066D01*
X22755238Y-71434733D01*
X22717142Y-71434733D01*
X22679047Y-71418066D01*
X22660000Y-71401400D01*
X22640952Y-71368066D01*
X22640952Y-71284733D01*
X22660000Y-71234733D01*
X22831428Y-71084733D02*
X22831428Y-70968066D01*
X23040952Y-70918066D02*
X23040952Y-71084733D01*
X22640952Y-71084733D01*
X22640952Y-70918066D01*
X22640952Y-70818066D02*
X22640952Y-70618066D01*
X23040952Y-70718066D02*
X22640952Y-70718066D01*
D10*
X22209285Y-73058928D02*
X22959285Y-72808928D01*
X22209285Y-72558928D01*
X10499285Y-71439642D02*
X10142142Y-71689642D01*
X10499285Y-71868214D02*
X9749285Y-71868214D01*
X9749285Y-71582500D01*
X9785000Y-71511071D01*
X9820714Y-71475357D01*
X9892142Y-71439642D01*
X9999285Y-71439642D01*
X10070714Y-71475357D01*
X10106428Y-71511071D01*
X10142142Y-71582500D01*
X10142142Y-71868214D01*
X9749285Y-71189642D02*
X10499285Y-70689642D01*
X9749285Y-70689642D02*
X10499285Y-71189642D01*
X20642857Y-89402380D02*
X20833333Y-89402380D01*
X20928571Y-89450000D01*
X21023809Y-89545238D01*
X21071428Y-89735714D01*
X21071428Y-90069047D01*
X21023809Y-90259523D01*
X20928571Y-90354761D01*
X20833333Y-90402380D01*
X20642857Y-90402380D01*
X20547619Y-90354761D01*
X20452380Y-90259523D01*
X20404761Y-90069047D01*
X20404761Y-89735714D01*
X20452380Y-89545238D01*
X20547619Y-89450000D01*
X20642857Y-89402380D01*
X21500000Y-89402380D02*
X21500000Y-90211904D01*
X21547619Y-90307142D01*
X21595238Y-90354761D01*
X21690476Y-90402380D01*
X21880952Y-90402380D01*
X21976190Y-90354761D01*
X22023809Y-90307142D01*
X22071428Y-90211904D01*
X22071428Y-89402380D01*
X22404761Y-89402380D02*
X22976190Y-89402380D01*
X22690476Y-90402380D02*
X22690476Y-89402380D01*
X24595238Y-90402380D02*
X24023809Y-90402380D01*
X24309523Y-90402380D02*
X24309523Y-89402380D01*
X24214285Y-89545238D01*
X24119047Y-89640476D01*
X24023809Y-89688095D01*
X7024761Y-12102380D02*
X6691428Y-11626190D01*
X6453333Y-12102380D02*
X6453333Y-11102380D01*
X6834285Y-11102380D01*
X6929523Y-11150000D01*
X6977142Y-11197619D01*
X7024761Y-11292857D01*
X7024761Y-11435714D01*
X6977142Y-11530952D01*
X6929523Y-11578571D01*
X6834285Y-11626190D01*
X6453333Y-11626190D01*
X7310476Y-11102380D02*
X7643809Y-12102380D01*
X7977142Y-11102380D01*
X8834285Y-12102380D02*
X8262857Y-12102380D01*
X8548571Y-12102380D02*
X8548571Y-11102380D01*
X8453333Y-11245238D01*
X8358095Y-11340476D01*
X8262857Y-11388095D01*
X9500000Y3547619D02*
X9500000Y4214285D01*
X9500000Y4023809D02*
X9547619Y4119047D01*
X9595238Y4166666D01*
X9690476Y4214285D01*
X9785714Y4214285D01*
X10119047Y3547619D02*
X10119047Y4214285D01*
X10119047Y4547619D02*
X10071428Y4500000D01*
X10119047Y4452380D01*
X10166666Y4500000D01*
X10119047Y4547619D01*
X10119047Y4452380D01*
X11023809Y3595238D02*
X10928571Y3547619D01*
X10738095Y3547619D01*
X10642857Y3595238D01*
X10595238Y3642857D01*
X10547619Y3738095D01*
X10547619Y4023809D01*
X10595238Y4119047D01*
X10642857Y4166666D01*
X10738095Y4214285D01*
X10928571Y4214285D01*
X11023809Y4166666D01*
X12071428Y4214285D02*
X12452380Y4214285D01*
X12214285Y3547619D02*
X12214285Y4404761D01*
X12261904Y4500000D01*
X12357142Y4547619D01*
X12452380Y4547619D01*
X12785714Y3547619D02*
X12785714Y4214285D01*
X12785714Y4023809D02*
X12833333Y4119047D01*
X12880952Y4166666D01*
X12976190Y4214285D01*
X13071428Y4214285D01*
X13547619Y3547619D02*
X13452380Y3595238D01*
X13404761Y3642857D01*
X13357142Y3738095D01*
X13357142Y4023809D01*
X13404761Y4119047D01*
X13452380Y4166666D01*
X13547619Y4214285D01*
X13690476Y4214285D01*
X13785714Y4166666D01*
X13833333Y4119047D01*
X13880952Y4023809D01*
X13880952Y3738095D01*
X13833333Y3642857D01*
X13785714Y3595238D01*
X13690476Y3547619D01*
X13547619Y3547619D01*
X14309523Y3547619D02*
X14309523Y4214285D01*
X14309523Y4119047D02*
X14357142Y4166666D01*
X14452380Y4214285D01*
X14595238Y4214285D01*
X14690476Y4166666D01*
X14738095Y4071428D01*
X14738095Y3547619D01*
X14738095Y4071428D02*
X14785714Y4166666D01*
X14880952Y4214285D01*
X15023809Y4214285D01*
X15119047Y4166666D01*
X15166666Y4071428D01*
X15166666Y3547619D01*
X16785714Y3595238D02*
X16690476Y3547619D01*
X16499999Y3547619D01*
X16404761Y3595238D01*
X16357142Y3690476D01*
X16357142Y4071428D01*
X16404761Y4166666D01*
X16499999Y4214285D01*
X16690476Y4214285D01*
X16785714Y4166666D01*
X16833333Y4071428D01*
X16833333Y3976190D01*
X16357142Y3880952D01*
X17690476Y3547619D02*
X17690476Y4071428D01*
X17642857Y4166666D01*
X17547619Y4214285D01*
X17357142Y4214285D01*
X17261904Y4166666D01*
X17690476Y3595238D02*
X17595238Y3547619D01*
X17357142Y3547619D01*
X17261904Y3595238D01*
X17214285Y3690476D01*
X17214285Y3785714D01*
X17261904Y3880952D01*
X17357142Y3928571D01*
X17595238Y3928571D01*
X17690476Y3976190D01*
X18309523Y3547619D02*
X18214285Y3595238D01*
X18166666Y3690476D01*
X18166666Y4547619D01*
X18690476Y3547619D02*
X18690476Y4214285D01*
X18690476Y4547619D02*
X18642857Y4500000D01*
X18690476Y4452380D01*
X18738095Y4500000D01*
X18690476Y4547619D01*
X18690476Y4452380D01*
X19166666Y4214285D02*
X19166666Y3547619D01*
X19166666Y4119047D02*
X19214285Y4166666D01*
X19309523Y4214285D01*
X19452380Y4214285D01*
X19547619Y4166666D01*
X19595238Y4071428D01*
X19595238Y3547619D01*
X20500000Y4214285D02*
X20500000Y3404761D01*
X20452380Y3309523D01*
X20404761Y3261904D01*
X20309523Y3214285D01*
X20166666Y3214285D01*
X20071428Y3261904D01*
X20500000Y3595238D02*
X20404761Y3547619D01*
X20214285Y3547619D01*
X20119047Y3595238D01*
X20071428Y3642857D01*
X20023809Y3738095D01*
X20023809Y4023809D01*
X20071428Y4119047D01*
X20119047Y4166666D01*
X20214285Y4214285D01*
X20404761Y4214285D01*
X20500000Y4166666D01*
X5419285Y-79896785D02*
X5062142Y-80146785D01*
X5419285Y-80325357D02*
X4669285Y-80325357D01*
X4669285Y-80039642D01*
X4705000Y-79968214D01*
X4740714Y-79932500D01*
X4812142Y-79896785D01*
X4919285Y-79896785D01*
X4990714Y-79932500D01*
X5026428Y-79968214D01*
X5062142Y-80039642D01*
X5062142Y-80325357D01*
X5026428Y-79575357D02*
X5026428Y-79325357D01*
X5419285Y-79218214D02*
X5419285Y-79575357D01*
X4669285Y-79575357D01*
X4669285Y-79218214D01*
X5383571Y-78932500D02*
X5419285Y-78825357D01*
X5419285Y-78646785D01*
X5383571Y-78575357D01*
X5347857Y-78539642D01*
X5276428Y-78503928D01*
X5205000Y-78503928D01*
X5133571Y-78539642D01*
X5097857Y-78575357D01*
X5062142Y-78646785D01*
X5026428Y-78789642D01*
X4990714Y-78861071D01*
X4955000Y-78896785D01*
X4883571Y-78932500D01*
X4812142Y-78932500D01*
X4740714Y-78896785D01*
X4705000Y-78861071D01*
X4669285Y-78789642D01*
X4669285Y-78611071D01*
X4705000Y-78503928D01*
X4669285Y-77682500D02*
X5419285Y-77503928D01*
X4883571Y-77361071D01*
X5419285Y-77218214D01*
X4669285Y-77039642D01*
X21119047Y-51102380D02*
X21119047Y-50102380D01*
X21595238Y-51102380D02*
X21595238Y-50102380D01*
X22166666Y-51102380D01*
X22166666Y-50102380D01*
X23357142Y-50197619D02*
X23404761Y-50150000D01*
X23500000Y-50102380D01*
X23738095Y-50102380D01*
X23833333Y-50150000D01*
X23880952Y-50197619D01*
X23928571Y-50292857D01*
X23928571Y-50388095D01*
X23880952Y-50530952D01*
X23309523Y-51102380D01*
X23928571Y-51102380D01*
X17500000Y-58977571D02*
X17607142Y-59013285D01*
X17785714Y-59013285D01*
X17857142Y-58977571D01*
X17892857Y-58941857D01*
X17928571Y-58870428D01*
X17928571Y-58799000D01*
X17892857Y-58727571D01*
X17857142Y-58691857D01*
X17785714Y-58656142D01*
X17642857Y-58620428D01*
X17571428Y-58584714D01*
X17535714Y-58549000D01*
X17500000Y-58477571D01*
X17500000Y-58406142D01*
X17535714Y-58334714D01*
X17571428Y-58299000D01*
X17642857Y-58263285D01*
X17821428Y-58263285D01*
X17928571Y-58299000D01*
X18178571Y-58263285D02*
X18357142Y-59013285D01*
X18500000Y-58477571D01*
X18642857Y-59013285D01*
X18821428Y-58263285D01*
X19250000Y-58263285D02*
X19321428Y-58263285D01*
X19392857Y-58299000D01*
X19428571Y-58334714D01*
X19464285Y-58406142D01*
X19500000Y-58549000D01*
X19500000Y-58727571D01*
X19464285Y-58870428D01*
X19428571Y-58941857D01*
X19392857Y-58977571D01*
X19321428Y-59013285D01*
X19250000Y-59013285D01*
X19178571Y-58977571D01*
X19142857Y-58941857D01*
X19107142Y-58870428D01*
X19071428Y-58727571D01*
X19071428Y-58549000D01*
X19107142Y-58406142D01*
X19142857Y-58334714D01*
X19178571Y-58299000D01*
X19250000Y-58263285D01*
X25499285Y-72975357D02*
X24749285Y-72975357D01*
X24749285Y-72475357D02*
X24749285Y-72332500D01*
X24785000Y-72261071D01*
X24856428Y-72189642D01*
X24999285Y-72153928D01*
X25249285Y-72153928D01*
X25392142Y-72189642D01*
X25463571Y-72261071D01*
X25499285Y-72332500D01*
X25499285Y-72475357D01*
X25463571Y-72546785D01*
X25392142Y-72618214D01*
X25249285Y-72653928D01*
X24999285Y-72653928D01*
X24856428Y-72618214D01*
X24785000Y-72546785D01*
X24749285Y-72475357D01*
X24749285Y-71903928D02*
X24749285Y-71439642D01*
X25035000Y-71689642D01*
X25035000Y-71582500D01*
X25070714Y-71511071D01*
X25106428Y-71475357D01*
X25177857Y-71439642D01*
X25356428Y-71439642D01*
X25427857Y-71475357D01*
X25463571Y-71511071D01*
X25499285Y-71582500D01*
X25499285Y-71796785D01*
X25463571Y-71868214D01*
X25427857Y-71903928D01*
X24820714Y-71153928D02*
X24785000Y-71118214D01*
X24749285Y-71046785D01*
X24749285Y-70868214D01*
X24785000Y-70796785D01*
X24820714Y-70761071D01*
X24892142Y-70725357D01*
X24963571Y-70725357D01*
X25070714Y-70761071D01*
X25499285Y-71189642D01*
X25499285Y-70725357D01*
X19669285Y-80039642D02*
X19669285Y-79896785D01*
X19705000Y-79825357D01*
X19776428Y-79753928D01*
X19919285Y-79718214D01*
X20169285Y-79718214D01*
X20312142Y-79753928D01*
X20383571Y-79825357D01*
X20419285Y-79896785D01*
X20419285Y-80039642D01*
X20383571Y-80111071D01*
X20312142Y-80182500D01*
X20169285Y-80218214D01*
X19919285Y-80218214D01*
X19776428Y-80182500D01*
X19705000Y-80111071D01*
X19669285Y-80039642D01*
X19669285Y-79396785D02*
X20276428Y-79396785D01*
X20347857Y-79361071D01*
X20383571Y-79325357D01*
X20419285Y-79253928D01*
X20419285Y-79111071D01*
X20383571Y-79039642D01*
X20347857Y-79003928D01*
X20276428Y-78968214D01*
X19669285Y-78968214D01*
X19669285Y-78718214D02*
X19669285Y-78289642D01*
X20419285Y-78503928D02*
X19669285Y-78503928D01*
X19669285Y-77539642D02*
X19669285Y-77075357D01*
X19955000Y-77325357D01*
X19955000Y-77218214D01*
X19990714Y-77146785D01*
X20026428Y-77111071D01*
X20097857Y-77075357D01*
X20276428Y-77075357D01*
X20347857Y-77111071D01*
X20383571Y-77146785D01*
X20419285Y-77218214D01*
X20419285Y-77432500D01*
X20383571Y-77503928D01*
X20347857Y-77539642D01*
%LPC*%
D12*
X23787500Y-62500000D02*
G75*
G03*
X23787500Y-62500000I-1287500J0D01*
G01*
X8787500Y-62500000D02*
G75*
G03*
X8787500Y-62500000I-1287500J0D01*
G01*
D13*
%TO.C,H1*%
X22500000Y11500000D03*
%TD*%
D14*
%TO.C,J6*%
X7500000Y-94900000D03*
%TD*%
D15*
%TO.C,RV4*%
X7500000Y-6700000D03*
%TD*%
%TO.C,RV2*%
X22500000Y-21400000D03*
%TD*%
D16*
%TO.C,SW3*%
X18500000Y-55800000D03*
%TD*%
D14*
%TO.C,J4*%
X7500000Y-85000000D03*
%TD*%
D15*
%TO.C,RV3*%
X7500000Y-21400000D03*
%TD*%
D13*
%TO.C,H2*%
X7500000Y11500000D03*
%TD*%
D14*
%TO.C,J3*%
X7500000Y-45700000D03*
%TD*%
D16*
%TO.C,SW2*%
X4500000Y-55800000D03*
%TD*%
D14*
%TO.C,J2*%
X22500000Y-45700000D03*
%TD*%
D16*
%TO.C,SW4*%
X25500000Y-55800000D03*
%TD*%
D13*
%TO.C,H4*%
X7500000Y-111500000D03*
%TD*%
D16*
%TO.C,SW1*%
X11500000Y-55800000D03*
%TD*%
D15*
%TO.C,RV1*%
X22500000Y-6700000D03*
%TD*%
D13*
%TO.C,H3*%
X22500000Y-111500000D03*
%TD*%
D14*
%TO.C,J1*%
X22500000Y-85000000D03*
%TD*%
%TO.C,J5*%
X22500000Y-94900000D03*
%TD*%
%TO.C,J7*%
X7500000Y-35600000D03*
%TD*%
M02*
