%TF.GenerationSoftware,KiCad,Pcbnew,(6.0.0-0)*%
%TF.CreationDate,2022-01-16T08:37:53+00:00*%
%TF.ProjectId,curly-memory-kicad,6375726c-792d-46d6-956d-6f72792d6b69,rev?*%
%TF.SameCoordinates,Original*%
%TF.FileFunction,Soldermask,Bot*%
%TF.FilePolarity,Negative*%
%FSLAX46Y46*%
G04 Gerber Fmt 4.6, Leading zero omitted, Abs format (unit mm)*
G04 Created by KiCad (PCBNEW (6.0.0-0)) date 2022-01-16 08:37:53*
%MOMM*%
%LPD*%
G01*
G04 APERTURE LIST*
G04 Aperture macros list*
%AMRoundRect*
0 Rectangle with rounded corners*
0 $1 Rounding radius*
0 $2 $3 $4 $5 $6 $7 $8 $9 X,Y pos of 4 corners*
0 Add a 4 corners polygon primitive as box body*
4,1,4,$2,$3,$4,$5,$6,$7,$8,$9,$2,$3,0*
0 Add four circle primitives for the rounded corners*
1,1,$1+$1,$2,$3*
1,1,$1+$1,$4,$5*
1,1,$1+$1,$6,$7*
1,1,$1+$1,$8,$9*
0 Add four rect primitives between the rounded corners*
20,1,$1+$1,$2,$3,$4,$5,0*
20,1,$1+$1,$4,$5,$6,$7,0*
20,1,$1+$1,$6,$7,$8,$9,0*
20,1,$1+$1,$8,$9,$2,$3,0*%
G04 Aperture macros list end*
%ADD10C,0.150000*%
%ADD11RoundRect,0.250000X-0.600000X0.600000X-0.600000X-0.600000X0.600000X-0.600000X0.600000X0.600000X0*%
%ADD12C,1.700000*%
%ADD13R,1.700000X1.700000*%
%ADD14O,1.700000X1.700000*%
G04 APERTURE END LIST*
D10*
X20785714Y-94610180D02*
X20785714Y-93943514D01*
X20785714Y-94133990D02*
X20738095Y-94038752D01*
X20690476Y-93991133D01*
X20595238Y-93943514D01*
X20500000Y-93943514D01*
X20309523Y-93943514D02*
X19928571Y-93943514D01*
X20166666Y-94610180D02*
X20166666Y-93753038D01*
X20119047Y-93657800D01*
X20023809Y-93610180D01*
X19928571Y-93610180D01*
X19214285Y-94562561D02*
X19309523Y-94610180D01*
X19500000Y-94610180D01*
X19595238Y-94562561D01*
X19642857Y-94467323D01*
X19642857Y-94086371D01*
X19595238Y-93991133D01*
X19500000Y-93943514D01*
X19309523Y-93943514D01*
X19214285Y-93991133D01*
X19166666Y-94086371D01*
X19166666Y-94181609D01*
X19642857Y-94276847D01*
D11*
%TO.C,J401*%
X24384000Y-82440500D03*
D12*
X24384000Y-84980500D03*
X21844000Y-82440500D03*
X21844000Y-84980500D03*
X19304000Y-82440500D03*
X19304000Y-84980500D03*
X16764000Y-82440500D03*
X16764000Y-84980500D03*
X14224000Y-82440500D03*
X14224000Y-84980500D03*
%TD*%
D13*
%TO.C,J101*%
X17540000Y-31600000D03*
D14*
X20080000Y-31600000D03*
X22620000Y-31600000D03*
X25160000Y-31600000D03*
X27700000Y-31600000D03*
%TD*%
D13*
%TO.C,J103*%
X17540000Y-71500000D03*
D14*
X20080000Y-71500000D03*
X22620000Y-71500000D03*
X25160000Y-71500000D03*
X27700000Y-71500000D03*
%TD*%
D13*
%TO.C,J102*%
X2300000Y-71500000D03*
D14*
X4840000Y-71500000D03*
X7380000Y-71500000D03*
X9920000Y-71500000D03*
X12460000Y-71500000D03*
%TD*%
D13*
%TO.C,J105*%
X2300000Y-79250000D03*
D14*
X4840000Y-79250000D03*
X7380000Y-79250000D03*
X9920000Y-79250000D03*
X12460000Y-79250000D03*
%TD*%
D13*
%TO.C,J104*%
X17531000Y-79250000D03*
D14*
X20071000Y-79250000D03*
X22611000Y-79250000D03*
X25151000Y-79250000D03*
X27691000Y-79250000D03*
%TD*%
D13*
%TO.C,J106*%
X17540000Y-35000000D03*
D14*
X20080000Y-35000000D03*
X22620000Y-35000000D03*
X25160000Y-35000000D03*
X27700000Y-35000000D03*
%TD*%
M02*
