M48
; DRILL file {KiCad (6.0.0-0)} date Sunday, 16 January 2022 at 08:37:56
; FORMAT={-:-/ absolute / metric / decimal}
; #@! TF.CreationDate,2022-01-16T08:37:56+00:00
; #@! TF.GenerationSoftware,Kicad,Pcbnew,(6.0.0-0)
; #@! TF.FileFunction,MixedPlating,1,4
FMAT,2
METRIC
; #@! TA.AperFunction,Plated,PTH,ViaDrill
T1C0.400
; #@! TA.AperFunction,Plated,PTH,ComponentDrill
T2C1.000
%
G90
G05
T1
X0.903Y-49.066
X1.016Y-33.782
X1.375Y-24.011
X1.742Y-52.064
X1.778Y-57.912
X1.778Y-66.802
X1.889Y-51.054
X2.026Y-68.332
X2.032Y-60.452
X2.032Y-61.722
X2.032Y-85.852
X2.495Y-26.081
X2.54Y-96.52
X2.958Y-28.422
X3.302Y-26.67
X3.318Y-76.438
X3.466Y-38.354
X3.466Y-41.91
X3.466Y-45.188
X3.556Y-34.798
X3.81Y-32.258
X3.81Y-40.894
X4.435Y-44.944
X4.787Y-35.521
X4.826Y-63.246
X4.826Y-69.088
X5.08Y-52.832
X5.08Y-54.102
X5.08Y-56.642
X5.08Y-64.516
X5.08Y-65.786
X5.08Y-67.056
X5.334Y-55.372
X5.588Y-58.928
X5.594Y-57.906
X5.806Y-50.655
X6.593Y-24.902
X6.61Y-68.32
X6.858Y-51.562
X6.858Y-65.786
X6.883Y-29.196
X6.985Y-96.52
X7.077Y-45.9
X7.112Y-59.436
X7.372Y-5.298
X7.62Y-3.556
X7.62Y-25.146
X7.62Y-34.29
X7.784Y-55.29
X8.128Y-40.386
X8.128Y-81.534
X8.174Y-70.287
X8.182Y-20.527
X8.346Y-42.327
X8.346Y-43.361
X8.382Y-38.643
X8.41Y-44.359
X8.636Y-87.63
X8.671Y-34.481
X8.925Y-29.636
X9.328Y-41.864
X9.343Y-6.665
X9.398Y-39.624
X9.398Y-40.64
X9.398Y-59.69
X9.398Y-73.152
X9.652Y-34.29
X9.687Y-62.437
X10.195Y-15.869
X10.332Y-42.523
X10.477Y-75.325
X10.586Y-47.462
X10.795Y-87.63
X11.568Y-3.649
X11.684Y-90.678
X11.813Y-51.691
X12.192Y-61.468
X12.192Y-65.278
X12.192Y-82.042
X12.243Y-63.652
X12.68Y-4.97
X12.7Y-50.038
X12.71Y-74.422
X12.899Y-54.102
X12.899Y-56.642
X12.925Y-62.738
X13.064Y-33.042
X13.208Y-26.67
X13.208Y-39.878
X13.462Y-20.32
X13.716Y-14.732
X13.97Y-3.81
X13.97Y-7.874
X14.224Y-35.306
X14.224Y-61.976
X15.107Y-16.377
X15.385Y-74.422
X15.494Y-55.118
X15.494Y-60.706
X15.548Y-56.134
X15.602Y-53.845
X15.715Y-50.169
X15.718Y-38.608
X15.72Y-57.402
X15.748Y-58.674
X15.748Y-62.738
X15.9Y-51.206
X16.002Y-14.732
X16.066Y-44.486
X16.51Y-4.318
X16.51Y-90.17
X16.764Y-7.874
X16.764Y-25.4
X16.77Y-16.77
X17.607Y-73.139
X18.034Y-3.556
X18.034Y-51.308
X18.034Y-67.818
X18.288Y-23.368
X18.542Y-21.336
X18.796Y-69.85
X19.044Y-16.758
X19.05Y-6.604
X19.558Y-8.89
X19.558Y-12.446
X20.32Y-3.556
X20.359Y-54.044
X20.574Y-16.256
X20.753Y-45.403
X20.828Y-33.528
X20.828Y-50.546
X20.828Y-52.07
X20.828Y-60.706
X20.828Y-92.964
X21.311Y-49.494
X21.336Y-47.498
X21.59Y-5.08
X21.59Y-20.574
X21.844Y-9.144
X22.098Y-12.7
X22.184Y-30.069
X22.234Y-74.422
X22.352Y-23.368
X22.352Y-27.686
X22.352Y-68.072
X22.554Y-51.999
X22.57Y-41.323
X22.606Y-53.594
X22.764Y-49.349
X22.86Y-3.81
X22.86Y-17.018
X22.86Y-45.99
X22.86Y-46.99
X22.86Y-50.546
X23.022Y-44.563
X23.374Y-69.348
X23.622Y-14.732
X24.009Y-29.839
X24.09Y-3.419
X24.09Y-16.901
X24.13Y-91.694
X24.883Y-74.422
X24.892Y-20.574
X25.146Y-29.972
X25.146Y-88.646
X25.544Y-57.358
X25.689Y-53.447
X25.689Y-54.864
X25.902Y-39.641
X25.908Y-40.64
X25.908Y-52.07
X25.908Y-67.056
X25.924Y-68.31
X26.416Y-21.844
X26.416Y-29.718
X26.416Y-48.151
X26.416Y-94.488
X26.67Y-37.338
X26.924Y-5.842
X26.924Y-15.748
X27.686Y-7.366
X27.94Y-10.16
X27.94Y-37.084
X28.321Y-58.454
X28.321Y-60.425
X28.448Y-13.462
X28.702Y-1.778
X29.21Y-39.116
X29.229Y-40.64
X29.229Y-64.516
T2
X2.3Y-71.5
X2.3Y-79.25
X4.84Y-71.5
X4.84Y-79.25
X7.38Y-71.5
X7.38Y-79.25
X9.92Y-71.5
X9.92Y-79.25
X12.46Y-71.5
X12.46Y-79.25
X14.224Y-82.441
X14.224Y-84.98
X16.764Y-82.441
X16.764Y-84.98
X17.531Y-79.25
X17.54Y-31.6
X17.54Y-35.0
X17.54Y-71.5
X19.304Y-82.441
X19.304Y-84.98
X20.071Y-79.25
X20.08Y-31.6
X20.08Y-35.0
X20.08Y-71.5
X21.844Y-82.441
X21.844Y-84.98
X22.611Y-79.25
X22.62Y-31.6
X22.62Y-35.0
X22.62Y-71.5
X24.384Y-82.441
X24.384Y-84.98
X25.151Y-79.25
X25.16Y-31.6
X25.16Y-35.0
X25.16Y-71.5
X27.691Y-79.25
X27.7Y-31.6
X27.7Y-35.0
X27.7Y-71.5
T0
M30
