%TF.GenerationSoftware,KiCad,Pcbnew,(6.0.0-0)*%
%TF.CreationDate,2022-01-16T08:37:53+00:00*%
%TF.ProjectId,curly-memory-kicad,6375726c-792d-46d6-956d-6f72792d6b69,rev?*%
%TF.SameCoordinates,Original*%
%TF.FileFunction,Soldermask,Top*%
%TF.FilePolarity,Negative*%
%FSLAX46Y46*%
G04 Gerber Fmt 4.6, Leading zero omitted, Abs format (unit mm)*
G04 Created by KiCad (PCBNEW (6.0.0-0)) date 2022-01-16 08:37:53*
%MOMM*%
%LPD*%
G01*
G04 APERTURE LIST*
G04 Aperture macros list*
%AMRoundRect*
0 Rectangle with rounded corners*
0 $1 Rounding radius*
0 $2 $3 $4 $5 $6 $7 $8 $9 X,Y pos of 4 corners*
0 Add a 4 corners polygon primitive as box body*
4,1,4,$2,$3,$4,$5,$6,$7,$8,$9,$2,$3,0*
0 Add four circle primitives for the rounded corners*
1,1,$1+$1,$2,$3*
1,1,$1+$1,$4,$5*
1,1,$1+$1,$6,$7*
1,1,$1+$1,$8,$9*
0 Add four rect primitives between the rounded corners*
20,1,$1+$1,$2,$3,$4,$5,0*
20,1,$1+$1,$4,$5,$6,$7,0*
20,1,$1+$1,$6,$7,$8,$9,0*
20,1,$1+$1,$8,$9,$2,$3,0*%
G04 Aperture macros list end*
%ADD10RoundRect,0.150000X-0.825000X-0.150000X0.825000X-0.150000X0.825000X0.150000X-0.825000X0.150000X0*%
%ADD11RoundRect,0.250000X0.450000X-0.350000X0.450000X0.350000X-0.450000X0.350000X-0.450000X-0.350000X0*%
%ADD12RoundRect,0.250000X-0.450000X0.350000X-0.450000X-0.350000X0.450000X-0.350000X0.450000X0.350000X0*%
%ADD13RoundRect,0.250000X-0.475000X0.337500X-0.475000X-0.337500X0.475000X-0.337500X0.475000X0.337500X0*%
%ADD14RoundRect,0.250000X-0.350000X-0.450000X0.350000X-0.450000X0.350000X0.450000X-0.350000X0.450000X0*%
%ADD15RoundRect,0.250000X0.475000X-0.337500X0.475000X0.337500X-0.475000X0.337500X-0.475000X-0.337500X0*%
%ADD16R,1.500000X2.000000*%
%ADD17R,3.800000X2.000000*%
%ADD18RoundRect,0.150000X-0.587500X-0.150000X0.587500X-0.150000X0.587500X0.150000X-0.587500X0.150000X0*%
%ADD19RoundRect,0.250000X0.337500X0.475000X-0.337500X0.475000X-0.337500X-0.475000X0.337500X-0.475000X0*%
%ADD20R,2.500000X1.800000*%
%ADD21RoundRect,0.250000X-0.600000X0.600000X-0.600000X-0.600000X0.600000X-0.600000X0.600000X0.600000X0*%
%ADD22C,1.700000*%
%ADD23R,1.700000X1.700000*%
%ADD24O,1.700000X1.700000*%
%ADD25RoundRect,0.250000X-0.450000X0.325000X-0.450000X-0.325000X0.450000X-0.325000X0.450000X0.325000X0*%
%ADD26R,0.900000X2.000000*%
%ADD27R,2.000000X0.900000*%
%ADD28R,5.000000X5.000000*%
%ADD29RoundRect,0.250000X-0.337500X-0.475000X0.337500X-0.475000X0.337500X0.475000X-0.337500X0.475000X0*%
%ADD30R,2.000000X1.500000*%
%ADD31R,2.000000X3.800000*%
%ADD32RoundRect,0.250000X0.350000X0.450000X-0.350000X0.450000X-0.350000X-0.450000X0.350000X-0.450000X0*%
%ADD33RoundRect,0.250000X0.450000X-0.325000X0.450000X0.325000X-0.450000X0.325000X-0.450000X-0.325000X0*%
G04 APERTURE END LIST*
D10*
%TO.C,U301*%
X19434000Y-60706000D03*
X19434000Y-61976000D03*
X19434000Y-63246000D03*
X19434000Y-64516000D03*
X19434000Y-65786000D03*
X19434000Y-67056000D03*
X19434000Y-68326000D03*
X24384000Y-68326000D03*
X24384000Y-67056000D03*
X24384000Y-65786000D03*
X24384000Y-64516000D03*
X24384000Y-63246000D03*
X24384000Y-61976000D03*
X24384000Y-60706000D03*
%TD*%
D11*
%TO.C,R303*%
X14224000Y-60182000D03*
X14224000Y-58182000D03*
%TD*%
D12*
%TO.C,R309*%
X11653360Y-74438000D03*
X11653360Y-76438000D03*
%TD*%
D13*
%TO.C,C105*%
X14224000Y-36554500D03*
X14224000Y-38629500D03*
%TD*%
D12*
%TO.C,R201*%
X5842000Y-31004000D03*
X5842000Y-33004000D03*
%TD*%
D11*
%TO.C,R209*%
X27686000Y-52308000D03*
X27686000Y-50308000D03*
%TD*%
D13*
%TO.C,C410*%
X28448000Y-26648500D03*
X28448000Y-28723500D03*
%TD*%
D14*
%TO.C,R103*%
X15256000Y-23876000D03*
X17256000Y-23876000D03*
%TD*%
D10*
%TO.C,U106*%
X3494000Y-50292000D03*
X3494000Y-51562000D03*
X3494000Y-52832000D03*
X3494000Y-54102000D03*
X3494000Y-55372000D03*
X3494000Y-56642000D03*
X3494000Y-57912000D03*
X8444000Y-57912000D03*
X8444000Y-56642000D03*
X8444000Y-55372000D03*
X8444000Y-54102000D03*
X8444000Y-52832000D03*
X8444000Y-51562000D03*
X8444000Y-50292000D03*
%TD*%
D12*
%TO.C,R304*%
X17018000Y-66585500D03*
X17018000Y-68585500D03*
%TD*%
D11*
%TO.C,R404*%
X14605000Y-28686000D03*
X14605000Y-26686000D03*
%TD*%
D15*
%TO.C,C401*%
X9272270Y-76475500D03*
X9272270Y-74400500D03*
%TD*%
D16*
%TO.C,U401*%
X2018000Y-88875000D03*
D17*
X4318000Y-82575000D03*
D16*
X4318000Y-88875000D03*
X6618000Y-88875000D03*
%TD*%
D18*
%TO.C,D203*%
X2110500Y-42484000D03*
X2110500Y-44384000D03*
X3985500Y-43434000D03*
%TD*%
D19*
%TO.C,C201*%
X25294500Y-38100000D03*
X23219500Y-38100000D03*
%TD*%
D15*
%TO.C,C404*%
X10541000Y-86000500D03*
X10541000Y-83925500D03*
%TD*%
D20*
%TO.C,D401*%
X2445000Y-94564200D03*
X6445000Y-94564200D03*
%TD*%
D12*
%TO.C,R307*%
X16415540Y-74438000D03*
X16415540Y-76438000D03*
%TD*%
D21*
%TO.C,J401*%
X24384000Y-82440500D03*
D22*
X24384000Y-84980500D03*
X21844000Y-82440500D03*
X21844000Y-84980500D03*
X19304000Y-82440500D03*
X19304000Y-84980500D03*
X16764000Y-82440500D03*
X16764000Y-84980500D03*
X14224000Y-82440500D03*
X14224000Y-84980500D03*
%TD*%
D23*
%TO.C,J101*%
X17540000Y-31600000D03*
D24*
X20080000Y-31600000D03*
X22620000Y-31600000D03*
X25160000Y-31600000D03*
X27700000Y-31600000D03*
%TD*%
D10*
%TO.C,U103*%
X19434000Y-54991000D03*
X19434000Y-56261000D03*
X19434000Y-57531000D03*
X19434000Y-58801000D03*
X24384000Y-58801000D03*
X24384000Y-57531000D03*
X24384000Y-56261000D03*
X24384000Y-54991000D03*
%TD*%
D15*
%TO.C,C310*%
X27305000Y-64410500D03*
X27305000Y-62335500D03*
%TD*%
D13*
%TO.C,C408*%
X2159000Y-74400500D03*
X2159000Y-76475500D03*
%TD*%
D12*
%TO.C,R104*%
X10795000Y-53864000D03*
X10795000Y-55864000D03*
%TD*%
%TO.C,R402*%
X4540090Y-74438000D03*
X4540090Y-76438000D03*
%TD*%
%TO.C,R208*%
X14224000Y-44974000D03*
X14224000Y-46974000D03*
%TD*%
D13*
%TO.C,C103*%
X10795000Y-49889500D03*
X10795000Y-51964500D03*
%TD*%
D18*
%TO.C,D202*%
X2110500Y-38928000D03*
X2110500Y-40828000D03*
X3985500Y-39878000D03*
%TD*%
D15*
%TO.C,C206*%
X17018000Y-44598500D03*
X17018000Y-42523500D03*
%TD*%
D25*
%TO.C,D404*%
X16764000Y-26661000D03*
X16764000Y-28711000D03*
%TD*%
D19*
%TO.C,C104*%
X9673500Y-21844000D03*
X7598500Y-21844000D03*
%TD*%
D11*
%TO.C,R105*%
X10795000Y-59674000D03*
X10795000Y-57674000D03*
%TD*%
D10*
%TO.C,U104*%
X19434000Y-49403000D03*
X19434000Y-50673000D03*
X19434000Y-51943000D03*
X19434000Y-53213000D03*
X24384000Y-53213000D03*
X24384000Y-51943000D03*
X24384000Y-50673000D03*
X24384000Y-49403000D03*
%TD*%
D11*
%TO.C,R403*%
X28448000Y-17002000D03*
X28448000Y-15002000D03*
%TD*%
D12*
%TO.C,R305*%
X27305000Y-66310000D03*
X27305000Y-68310000D03*
%TD*%
D13*
%TO.C,C110*%
X28321000Y-74400500D03*
X28321000Y-76475500D03*
%TD*%
D15*
%TO.C,C202*%
X14224000Y-43074500D03*
X14224000Y-40999500D03*
%TD*%
D23*
%TO.C,J103*%
X17540000Y-71500000D03*
D24*
X20080000Y-71500000D03*
X22620000Y-71500000D03*
X25160000Y-71500000D03*
X27700000Y-71500000D03*
%TD*%
D12*
%TO.C,R202*%
X8255000Y-30988000D03*
X8255000Y-32988000D03*
%TD*%
D23*
%TO.C,J102*%
X2300000Y-71500000D03*
D24*
X4840000Y-71500000D03*
X7380000Y-71500000D03*
X9920000Y-71500000D03*
X12460000Y-71500000D03*
%TD*%
D12*
%TO.C,R308*%
X21177720Y-74438000D03*
X21177720Y-76438000D03*
%TD*%
D11*
%TO.C,R306*%
X17018000Y-59801000D03*
X17018000Y-57801000D03*
%TD*%
D10*
%TO.C,U105*%
X3494000Y-60706000D03*
X3494000Y-61976000D03*
X3494000Y-63246000D03*
X3494000Y-64516000D03*
X3494000Y-65786000D03*
X3494000Y-67056000D03*
X3494000Y-68326000D03*
X8444000Y-68326000D03*
X8444000Y-67056000D03*
X8444000Y-65786000D03*
X8444000Y-64516000D03*
X8444000Y-63246000D03*
X8444000Y-61976000D03*
X8444000Y-60706000D03*
%TD*%
D12*
%TO.C,R106*%
X14224000Y-50308000D03*
X14224000Y-52308000D03*
%TD*%
D26*
%TO.C,U102*%
X7747000Y-18660000D03*
X9017000Y-18660000D03*
X10287000Y-18660000D03*
X11557000Y-18660000D03*
X12827000Y-18660000D03*
X14097000Y-18660000D03*
X15367000Y-18660000D03*
X16637000Y-18660000D03*
X17907000Y-18660000D03*
X19177000Y-18660000D03*
X20447000Y-18660000D03*
X21717000Y-18660000D03*
X22987000Y-18660000D03*
X24257000Y-18660000D03*
D27*
X25257000Y-15875000D03*
X25257000Y-14605000D03*
X25257000Y-13335000D03*
X25257000Y-12065000D03*
X25257000Y-10795000D03*
X25257000Y-9525000D03*
X25257000Y-8255000D03*
X25257000Y-6985000D03*
X25257000Y-5715000D03*
X25257000Y-4445000D03*
D26*
X24257000Y-1660000D03*
X22987000Y-1660000D03*
X21717000Y-1660000D03*
X20447000Y-1660000D03*
X19177000Y-1660000D03*
X17907000Y-1660000D03*
X16637000Y-1660000D03*
X15367000Y-1660000D03*
X14097000Y-1660000D03*
X12827000Y-1660000D03*
X11557000Y-1660000D03*
X10287000Y-1660000D03*
X9017000Y-1660000D03*
X7747000Y-1660000D03*
D28*
X15247000Y-11160000D03*
%TD*%
D23*
%TO.C,J105*%
X2300000Y-79250000D03*
D24*
X4840000Y-79250000D03*
X7380000Y-79250000D03*
X9920000Y-79250000D03*
X12460000Y-79250000D03*
%TD*%
D19*
%TO.C,C102*%
X9652000Y-23876000D03*
X7577000Y-23876000D03*
%TD*%
D20*
%TO.C,D402*%
X6445000Y-98120200D03*
X2445000Y-98120200D03*
%TD*%
D11*
%TO.C,R401*%
X6891180Y-76438000D03*
X6891180Y-74438000D03*
%TD*%
D15*
%TO.C,C302*%
X27305000Y-60473500D03*
X27305000Y-58398500D03*
%TD*%
D29*
%TO.C,C101*%
X11408500Y-21844000D03*
X13483500Y-21844000D03*
%TD*%
D15*
%TO.C,C301*%
X14224000Y-68623000D03*
X14224000Y-66548000D03*
%TD*%
D14*
%TO.C,R102*%
X15256000Y-21844000D03*
X17256000Y-21844000D03*
%TD*%
D13*
%TO.C,C309*%
X17018000Y-62716500D03*
X17018000Y-64791500D03*
%TD*%
%TO.C,C106*%
X10795000Y-61446500D03*
X10795000Y-63521500D03*
%TD*%
D15*
%TO.C,C305*%
X23558810Y-76475500D03*
X23558810Y-74400500D03*
%TD*%
D18*
%TO.C,D204*%
X2110500Y-46040000D03*
X2110500Y-47940000D03*
X3985500Y-46990000D03*
%TD*%
D13*
%TO.C,C402*%
X28448000Y-22711500D03*
X28448000Y-24786500D03*
%TD*%
D14*
%TO.C,R101*%
X11446000Y-23876000D03*
X13446000Y-23876000D03*
%TD*%
D30*
%TO.C,U402*%
X26010000Y-28208000D03*
D31*
X19710000Y-25908000D03*
D30*
X26010000Y-25908000D03*
X26010000Y-23608000D03*
%TD*%
D15*
%TO.C,C306*%
X14034450Y-76475500D03*
X14034450Y-74400500D03*
%TD*%
D18*
%TO.C,D201*%
X2110500Y-35372000D03*
X2110500Y-37272000D03*
X3985500Y-36322000D03*
%TD*%
D13*
%TO.C,C203*%
X27305000Y-42523500D03*
X27305000Y-44598500D03*
%TD*%
D15*
%TO.C,C207*%
X27305000Y-40661500D03*
X27305000Y-38586500D03*
%TD*%
D10*
%TO.C,U101*%
X6669000Y-35433000D03*
X6669000Y-36703000D03*
X6669000Y-37973000D03*
X6669000Y-39243000D03*
X6669000Y-40513000D03*
X6669000Y-41783000D03*
X6669000Y-43053000D03*
X6669000Y-44323000D03*
X11619000Y-44323000D03*
X11619000Y-43053000D03*
X11619000Y-41783000D03*
X11619000Y-40513000D03*
X11619000Y-39243000D03*
X11619000Y-37973000D03*
X11619000Y-36703000D03*
X11619000Y-35433000D03*
%TD*%
%TO.C,U201*%
X19434000Y-40005000D03*
X19434000Y-41275000D03*
X19434000Y-42545000D03*
X19434000Y-43815000D03*
X19434000Y-45085000D03*
X19434000Y-46355000D03*
X19434000Y-47625000D03*
X24384000Y-47625000D03*
X24384000Y-46355000D03*
X24384000Y-45085000D03*
X24384000Y-43815000D03*
X24384000Y-42545000D03*
X24384000Y-41275000D03*
X24384000Y-40005000D03*
%TD*%
D13*
%TO.C,C109*%
X17018000Y-53881200D03*
X17018000Y-55956200D03*
%TD*%
D12*
%TO.C,R205*%
X17018000Y-46371000D03*
X17018000Y-48371000D03*
%TD*%
D13*
%TO.C,C303*%
X14224000Y-54207500D03*
X14224000Y-56282500D03*
%TD*%
D15*
%TO.C,C304*%
X18796630Y-76475500D03*
X18796630Y-74400500D03*
%TD*%
D13*
%TO.C,C108*%
X17018000Y-50092700D03*
X17018000Y-52167700D03*
%TD*%
D12*
%TO.C,R301*%
X14224000Y-62754000D03*
X14224000Y-64754000D03*
%TD*%
D32*
%TO.C,R204*%
X21447000Y-38100000D03*
X19447000Y-38100000D03*
%TD*%
D33*
%TO.C,D403*%
X28448000Y-20837000D03*
X28448000Y-18787000D03*
%TD*%
D12*
%TO.C,R108*%
X25939900Y-74438000D03*
X25939900Y-76438000D03*
%TD*%
%TO.C,R203*%
X10795000Y-31004000D03*
X10795000Y-33004000D03*
%TD*%
D11*
%TO.C,R207*%
X17018000Y-40751000D03*
X17018000Y-38751000D03*
%TD*%
D12*
%TO.C,R107*%
X10795000Y-65421000D03*
X10795000Y-67421000D03*
%TD*%
D23*
%TO.C,J104*%
X17531000Y-79250000D03*
D24*
X20071000Y-79250000D03*
X22611000Y-79250000D03*
X25151000Y-79250000D03*
X27691000Y-79250000D03*
%TD*%
D23*
%TO.C,J106*%
X17540000Y-35000000D03*
D24*
X20080000Y-35000000D03*
X22620000Y-35000000D03*
X25160000Y-35000000D03*
X27700000Y-35000000D03*
%TD*%
D19*
%TO.C,C409*%
X3472000Y-91440000D03*
X1397000Y-91440000D03*
%TD*%
D12*
%TO.C,R302*%
X27686000Y-54610000D03*
X27686000Y-56610000D03*
%TD*%
D29*
%TO.C,C403*%
X5312500Y-91440000D03*
X7387500Y-91440000D03*
%TD*%
D12*
%TO.C,R206*%
X27305000Y-46498000D03*
X27305000Y-48498000D03*
%TD*%
M02*
