%TF.GenerationSoftware,KiCad,Pcbnew,(6.0.0-0)*%
%TF.CreationDate,2022-01-16T08:33:06+00:00*%
%TF.ProjectId,curly-memory-interface-board,6375726c-792d-46d6-956d-6f72792d696e,rev?*%
%TF.SameCoordinates,Original*%
%TF.FileFunction,Legend,Bot*%
%TF.FilePolarity,Positive*%
%FSLAX46Y46*%
G04 Gerber Fmt 4.6, Leading zero omitted, Abs format (unit mm)*
G04 Created by KiCad (PCBNEW (6.0.0-0)) date 2022-01-16 08:33:06*
%MOMM*%
%LPD*%
G01*
G04 APERTURE LIST*
G04 Aperture macros list*
%AMRoundRect*
0 Rectangle with rounded corners*
0 $1 Rounding radius*
0 $2 $3 $4 $5 $6 $7 $8 $9 X,Y pos of 4 corners*
0 Add a 4 corners polygon primitive as box body*
4,1,4,$2,$3,$4,$5,$6,$7,$8,$9,$2,$3,0*
0 Add four circle primitives for the rounded corners*
1,1,$1+$1,$2,$3*
1,1,$1+$1,$4,$5*
1,1,$1+$1,$6,$7*
1,1,$1+$1,$8,$9*
0 Add four rect primitives between the rounded corners*
20,1,$1+$1,$2,$3,$4,$5,0*
20,1,$1+$1,$4,$5,$6,$7,0*
20,1,$1+$1,$6,$7,$8,$9,0*
20,1,$1+$1,$8,$9,$2,$3,0*%
G04 Aperture macros list end*
%ADD10C,0.150000*%
%ADD11C,0.120000*%
%ADD12O,2.300000X3.100000*%
%ADD13RoundRect,0.650000X0.650000X-0.650000X0.650000X0.650000X-0.650000X0.650000X-0.650000X-0.650000X0*%
%ADD14C,4.000000*%
%ADD15C,1.800000*%
%ADD16R,1.700000X1.700000*%
%ADD17O,1.700000X1.700000*%
%ADD18RoundRect,0.650000X-0.650000X0.650000X-0.650000X-0.650000X0.650000X-0.650000X0.650000X0.650000X0*%
G04 APERTURE END LIST*
D10*
X20500000Y-88054980D02*
X20500000Y-87388314D01*
X20500000Y-87578790D02*
X20452380Y-87483552D01*
X20404761Y-87435933D01*
X20309523Y-87388314D01*
X20214285Y-87388314D01*
X19880952Y-88054980D02*
X19880952Y-87388314D01*
X19880952Y-87054980D02*
X19928571Y-87102600D01*
X19880952Y-87150219D01*
X19833333Y-87102600D01*
X19880952Y-87054980D01*
X19880952Y-87150219D01*
X18976190Y-88007361D02*
X19071428Y-88054980D01*
X19261904Y-88054980D01*
X19357142Y-88007361D01*
X19404761Y-87959742D01*
X19452380Y-87864504D01*
X19452380Y-87578790D01*
X19404761Y-87483552D01*
X19357142Y-87435933D01*
X19261904Y-87388314D01*
X19071428Y-87388314D01*
X18976190Y-87435933D01*
X17928571Y-87388314D02*
X17547619Y-87388314D01*
X17785714Y-88054980D02*
X17785714Y-87197838D01*
X17738095Y-87102600D01*
X17642857Y-87054980D01*
X17547619Y-87054980D01*
X17214285Y-88054980D02*
X17214285Y-87388314D01*
X17214285Y-87578790D02*
X17166666Y-87483552D01*
X17119047Y-87435933D01*
X17023809Y-87388314D01*
X16928571Y-87388314D01*
X16452380Y-88054980D02*
X16547619Y-88007361D01*
X16595238Y-87959742D01*
X16642857Y-87864504D01*
X16642857Y-87578790D01*
X16595238Y-87483552D01*
X16547619Y-87435933D01*
X16452380Y-87388314D01*
X16309523Y-87388314D01*
X16214285Y-87435933D01*
X16166666Y-87483552D01*
X16119047Y-87578790D01*
X16119047Y-87864504D01*
X16166666Y-87959742D01*
X16214285Y-88007361D01*
X16309523Y-88054980D01*
X16452380Y-88054980D01*
X15690476Y-88054980D02*
X15690476Y-87388314D01*
X15690476Y-87483552D02*
X15642857Y-87435933D01*
X15547619Y-87388314D01*
X15404761Y-87388314D01*
X15309523Y-87435933D01*
X15261904Y-87531171D01*
X15261904Y-88054980D01*
X15261904Y-87531171D02*
X15214285Y-87435933D01*
X15119047Y-87388314D01*
X14976190Y-87388314D01*
X14880952Y-87435933D01*
X14833333Y-87531171D01*
X14833333Y-88054980D01*
X13214285Y-88007361D02*
X13309523Y-88054980D01*
X13500000Y-88054980D01*
X13595238Y-88007361D01*
X13642857Y-87912123D01*
X13642857Y-87531171D01*
X13595238Y-87435933D01*
X13500000Y-87388314D01*
X13309523Y-87388314D01*
X13214285Y-87435933D01*
X13166666Y-87531171D01*
X13166666Y-87626409D01*
X13642857Y-87721647D01*
X12309523Y-88054980D02*
X12309523Y-87531171D01*
X12357142Y-87435933D01*
X12452380Y-87388314D01*
X12642857Y-87388314D01*
X12738095Y-87435933D01*
X12309523Y-88007361D02*
X12404761Y-88054980D01*
X12642857Y-88054980D01*
X12738095Y-88007361D01*
X12785714Y-87912123D01*
X12785714Y-87816885D01*
X12738095Y-87721647D01*
X12642857Y-87674028D01*
X12404761Y-87674028D01*
X12309523Y-87626409D01*
X11690476Y-88054980D02*
X11785714Y-88007361D01*
X11833333Y-87912123D01*
X11833333Y-87054980D01*
X11309523Y-88054980D02*
X11309523Y-87388314D01*
X11309523Y-87054980D02*
X11357142Y-87102600D01*
X11309523Y-87150219D01*
X11261904Y-87102600D01*
X11309523Y-87054980D01*
X11309523Y-87150219D01*
X10833333Y-87388314D02*
X10833333Y-88054980D01*
X10833333Y-87483552D02*
X10785714Y-87435933D01*
X10690476Y-87388314D01*
X10547619Y-87388314D01*
X10452380Y-87435933D01*
X10404761Y-87531171D01*
X10404761Y-88054980D01*
X9500000Y-87388314D02*
X9500000Y-88197838D01*
X9547619Y-88293076D01*
X9595238Y-88340695D01*
X9690476Y-88388314D01*
X9833333Y-88388314D01*
X9928571Y-88340695D01*
X9500000Y-88007361D02*
X9595238Y-88054980D01*
X9785714Y-88054980D01*
X9880952Y-88007361D01*
X9928571Y-87959742D01*
X9976190Y-87864504D01*
X9976190Y-87578790D01*
X9928571Y-87483552D01*
X9880952Y-87435933D01*
X9785714Y-87388314D01*
X9595238Y-87388314D01*
X9500000Y-87435933D01*
X19452380Y-89617361D02*
X19547619Y-89664980D01*
X19738095Y-89664980D01*
X19833333Y-89617361D01*
X19880952Y-89569742D01*
X19928571Y-89474504D01*
X19928571Y-89188790D01*
X19880952Y-89093552D01*
X19833333Y-89045933D01*
X19738095Y-88998314D01*
X19547619Y-88998314D01*
X19452380Y-89045933D01*
X18595238Y-88998314D02*
X18595238Y-89664980D01*
X19023809Y-88998314D02*
X19023809Y-89522123D01*
X18976190Y-89617361D01*
X18880952Y-89664980D01*
X18738095Y-89664980D01*
X18642857Y-89617361D01*
X18595238Y-89569742D01*
X18119047Y-89664980D02*
X18119047Y-88998314D01*
X18119047Y-89188790D02*
X18071428Y-89093552D01*
X18023809Y-89045933D01*
X17928571Y-88998314D01*
X17833333Y-88998314D01*
X17357142Y-89664980D02*
X17452380Y-89617361D01*
X17500000Y-89522123D01*
X17500000Y-88664980D01*
X17071428Y-88998314D02*
X16833333Y-89664980D01*
X16595238Y-88998314D02*
X16833333Y-89664980D01*
X16928571Y-89903076D01*
X16976190Y-89950695D01*
X17071428Y-89998314D01*
X15452380Y-89664980D02*
X15452380Y-88998314D01*
X15452380Y-89093552D02*
X15404761Y-89045933D01*
X15309523Y-88998314D01*
X15166666Y-88998314D01*
X15071428Y-89045933D01*
X15023809Y-89141171D01*
X15023809Y-89664980D01*
X15023809Y-89141171D02*
X14976190Y-89045933D01*
X14880952Y-88998314D01*
X14738095Y-88998314D01*
X14642857Y-89045933D01*
X14595238Y-89141171D01*
X14595238Y-89664980D01*
X13738095Y-89617361D02*
X13833333Y-89664980D01*
X14023809Y-89664980D01*
X14119047Y-89617361D01*
X14166666Y-89522123D01*
X14166666Y-89141171D01*
X14119047Y-89045933D01*
X14023809Y-88998314D01*
X13833333Y-88998314D01*
X13738095Y-89045933D01*
X13690476Y-89141171D01*
X13690476Y-89236409D01*
X14166666Y-89331647D01*
X13261904Y-89664980D02*
X13261904Y-88998314D01*
X13261904Y-89093552D02*
X13214285Y-89045933D01*
X13119047Y-88998314D01*
X12976190Y-88998314D01*
X12880952Y-89045933D01*
X12833333Y-89141171D01*
X12833333Y-89664980D01*
X12833333Y-89141171D02*
X12785714Y-89045933D01*
X12690476Y-88998314D01*
X12547619Y-88998314D01*
X12452380Y-89045933D01*
X12404761Y-89141171D01*
X12404761Y-89664980D01*
X11785714Y-89664980D02*
X11880952Y-89617361D01*
X11928571Y-89569742D01*
X11976190Y-89474504D01*
X11976190Y-89188790D01*
X11928571Y-89093552D01*
X11880952Y-89045933D01*
X11785714Y-88998314D01*
X11642857Y-88998314D01*
X11547619Y-89045933D01*
X11500000Y-89093552D01*
X11452380Y-89188790D01*
X11452380Y-89474504D01*
X11500000Y-89569742D01*
X11547619Y-89617361D01*
X11642857Y-89664980D01*
X11785714Y-89664980D01*
X11023809Y-89664980D02*
X11023809Y-88998314D01*
X11023809Y-89188790D02*
X10976190Y-89093552D01*
X10928571Y-89045933D01*
X10833333Y-88998314D01*
X10738095Y-88998314D01*
X10500000Y-88998314D02*
X10261904Y-89664980D01*
X10023809Y-88998314D02*
X10261904Y-89664980D01*
X10357142Y-89903076D01*
X10404761Y-89950695D01*
X10500000Y-89998314D01*
X20571428Y-91274980D02*
X20571428Y-90608314D01*
X20571428Y-90274980D02*
X20619047Y-90322600D01*
X20571428Y-90370219D01*
X20523809Y-90322600D01*
X20571428Y-90274980D01*
X20571428Y-90370219D01*
X20095238Y-90608314D02*
X20095238Y-91274980D01*
X20095238Y-90703552D02*
X20047619Y-90655933D01*
X19952380Y-90608314D01*
X19809523Y-90608314D01*
X19714285Y-90655933D01*
X19666666Y-90751171D01*
X19666666Y-91274980D01*
X19333333Y-90608314D02*
X18952380Y-90608314D01*
X19190476Y-90274980D02*
X19190476Y-91132123D01*
X19142857Y-91227361D01*
X19047619Y-91274980D01*
X18952380Y-91274980D01*
X18238095Y-91227361D02*
X18333333Y-91274980D01*
X18523809Y-91274980D01*
X18619047Y-91227361D01*
X18666666Y-91132123D01*
X18666666Y-90751171D01*
X18619047Y-90655933D01*
X18523809Y-90608314D01*
X18333333Y-90608314D01*
X18238095Y-90655933D01*
X18190476Y-90751171D01*
X18190476Y-90846409D01*
X18666666Y-90941647D01*
X17761904Y-91274980D02*
X17761904Y-90608314D01*
X17761904Y-90798790D02*
X17714285Y-90703552D01*
X17666666Y-90655933D01*
X17571428Y-90608314D01*
X17476190Y-90608314D01*
X17285714Y-90608314D02*
X16904761Y-90608314D01*
X17142857Y-91274980D02*
X17142857Y-90417838D01*
X17095238Y-90322600D01*
X17000000Y-90274980D01*
X16904761Y-90274980D01*
X16142857Y-91274980D02*
X16142857Y-90751171D01*
X16190476Y-90655933D01*
X16285714Y-90608314D01*
X16476190Y-90608314D01*
X16571428Y-90655933D01*
X16142857Y-91227361D02*
X16238095Y-91274980D01*
X16476190Y-91274980D01*
X16571428Y-91227361D01*
X16619047Y-91132123D01*
X16619047Y-91036885D01*
X16571428Y-90941647D01*
X16476190Y-90894028D01*
X16238095Y-90894028D01*
X16142857Y-90846409D01*
X15238095Y-91227361D02*
X15333333Y-91274980D01*
X15523809Y-91274980D01*
X15619047Y-91227361D01*
X15666666Y-91179742D01*
X15714285Y-91084504D01*
X15714285Y-90798790D01*
X15666666Y-90703552D01*
X15619047Y-90655933D01*
X15523809Y-90608314D01*
X15333333Y-90608314D01*
X15238095Y-90655933D01*
X14428571Y-91227361D02*
X14523809Y-91274980D01*
X14714285Y-91274980D01*
X14809523Y-91227361D01*
X14857142Y-91132123D01*
X14857142Y-90751171D01*
X14809523Y-90655933D01*
X14714285Y-90608314D01*
X14523809Y-90608314D01*
X14428571Y-90655933D01*
X14380952Y-90751171D01*
X14380952Y-90846409D01*
X14857142Y-90941647D01*
X13190476Y-91274980D02*
X13190476Y-90274980D01*
X13190476Y-90655933D02*
X13095238Y-90608314D01*
X12904761Y-90608314D01*
X12809523Y-90655933D01*
X12761904Y-90703552D01*
X12714285Y-90798790D01*
X12714285Y-91084504D01*
X12761904Y-91179742D01*
X12809523Y-91227361D01*
X12904761Y-91274980D01*
X13095238Y-91274980D01*
X13190476Y-91227361D01*
X12142857Y-91274980D02*
X12238095Y-91227361D01*
X12285714Y-91179742D01*
X12333333Y-91084504D01*
X12333333Y-90798790D01*
X12285714Y-90703552D01*
X12238095Y-90655933D01*
X12142857Y-90608314D01*
X12000000Y-90608314D01*
X11904761Y-90655933D01*
X11857142Y-90703552D01*
X11809523Y-90798790D01*
X11809523Y-91084504D01*
X11857142Y-91179742D01*
X11904761Y-91227361D01*
X12000000Y-91274980D01*
X12142857Y-91274980D01*
X10952380Y-91274980D02*
X10952380Y-90751171D01*
X11000000Y-90655933D01*
X11095238Y-90608314D01*
X11285714Y-90608314D01*
X11380952Y-90655933D01*
X10952380Y-91227361D02*
X11047619Y-91274980D01*
X11285714Y-91274980D01*
X11380952Y-91227361D01*
X11428571Y-91132123D01*
X11428571Y-91036885D01*
X11380952Y-90941647D01*
X11285714Y-90894028D01*
X11047619Y-90894028D01*
X10952380Y-90846409D01*
X10476190Y-91274980D02*
X10476190Y-90608314D01*
X10476190Y-90798790D02*
X10428571Y-90703552D01*
X10380952Y-90655933D01*
X10285714Y-90608314D01*
X10190476Y-90608314D01*
X9428571Y-91274980D02*
X9428571Y-90274980D01*
X9428571Y-91227361D02*
X9523809Y-91274980D01*
X9714285Y-91274980D01*
X9809523Y-91227361D01*
X9857142Y-91179742D01*
X9904761Y-91084504D01*
X9904761Y-90798790D01*
X9857142Y-90703552D01*
X9809523Y-90655933D01*
X9714285Y-90608314D01*
X9523809Y-90608314D01*
X9428571Y-90655933D01*
X17500000Y-92884980D02*
X17500000Y-92218314D01*
X17500000Y-91884980D02*
X17547619Y-91932600D01*
X17500000Y-91980219D01*
X17452380Y-91932600D01*
X17500000Y-91884980D01*
X17500000Y-91980219D01*
X17071428Y-92837361D02*
X16976190Y-92884980D01*
X16785714Y-92884980D01*
X16690476Y-92837361D01*
X16642857Y-92742123D01*
X16642857Y-92694504D01*
X16690476Y-92599266D01*
X16785714Y-92551647D01*
X16928571Y-92551647D01*
X17023809Y-92504028D01*
X17071428Y-92408790D01*
X17071428Y-92361171D01*
X17023809Y-92265933D01*
X16928571Y-92218314D01*
X16785714Y-92218314D01*
X16690476Y-92265933D01*
X16261904Y-92837361D02*
X16166666Y-92884980D01*
X15976190Y-92884980D01*
X15880952Y-92837361D01*
X15833333Y-92742123D01*
X15833333Y-92694504D01*
X15880952Y-92599266D01*
X15976190Y-92551647D01*
X16119047Y-92551647D01*
X16214285Y-92504028D01*
X16261904Y-92408790D01*
X16261904Y-92361171D01*
X16214285Y-92265933D01*
X16119047Y-92218314D01*
X15976190Y-92218314D01*
X15880952Y-92265933D01*
X14976190Y-92218314D02*
X14976190Y-92884980D01*
X15404761Y-92218314D02*
X15404761Y-92742123D01*
X15357142Y-92837361D01*
X15261904Y-92884980D01*
X15119047Y-92884980D01*
X15023809Y-92837361D01*
X14976190Y-92789742D01*
X14119047Y-92837361D02*
X14214285Y-92884980D01*
X14404761Y-92884980D01*
X14500000Y-92837361D01*
X14547619Y-92742123D01*
X14547619Y-92361171D01*
X14500000Y-92265933D01*
X14404761Y-92218314D01*
X14214285Y-92218314D01*
X14119047Y-92265933D01*
X14071428Y-92361171D01*
X14071428Y-92456409D01*
X14547619Y-92551647D01*
X12928571Y-92599266D02*
X12452380Y-92599266D01*
X13023809Y-92884980D02*
X12690476Y-91884980D01*
X12357142Y-92884980D01*
%TO.C,J14*%
X15235685Y-70665257D02*
X15771400Y-70665257D01*
X15878542Y-70629542D01*
X15949971Y-70558114D01*
X15985685Y-70450971D01*
X15985685Y-70379542D01*
X15985685Y-71415257D02*
X15985685Y-70986685D01*
X15985685Y-71200971D02*
X15235685Y-71200971D01*
X15342828Y-71129542D01*
X15414257Y-71058114D01*
X15449971Y-70986685D01*
X15485685Y-72058114D02*
X15985685Y-72058114D01*
X15199971Y-71879542D02*
X15735685Y-71700971D01*
X15735685Y-72165257D01*
%TO.C,J7*%
X13991085Y-79000000D02*
X14526800Y-79000000D01*
X14633942Y-78964285D01*
X14705371Y-78892857D01*
X14741085Y-78785714D01*
X14741085Y-78714285D01*
X13991085Y-79285714D02*
X13991085Y-79785714D01*
X14741085Y-79464285D01*
%TO.C,J6*%
X13991085Y-71250000D02*
X14526800Y-71250000D01*
X14633942Y-71214285D01*
X14705371Y-71142857D01*
X14741085Y-71035714D01*
X14741085Y-70964285D01*
X13991085Y-71928571D02*
X13991085Y-71785714D01*
X14026800Y-71714285D01*
X14062514Y-71678571D01*
X14169657Y-71607142D01*
X14312514Y-71571428D01*
X14598228Y-71571428D01*
X14669657Y-71607142D01*
X14705371Y-71642857D01*
X14741085Y-71714285D01*
X14741085Y-71857142D01*
X14705371Y-71928571D01*
X14669657Y-71964285D01*
X14598228Y-72000000D01*
X14419657Y-72000000D01*
X14348228Y-71964285D01*
X14312514Y-71928571D01*
X14276800Y-71857142D01*
X14276800Y-71714285D01*
X14312514Y-71642857D01*
X14348228Y-71607142D01*
X14419657Y-71571428D01*
%TO.C,J4*%
X16978380Y-28546466D02*
X17692666Y-28546466D01*
X17835523Y-28498847D01*
X17930761Y-28403609D01*
X17978380Y-28260752D01*
X17978380Y-28165514D01*
X17311714Y-29451228D02*
X17978380Y-29451228D01*
X16930761Y-29213133D02*
X17645047Y-28975038D01*
X17645047Y-29594085D01*
%TO.C,J18*%
X16851380Y-36960276D02*
X17565666Y-36960276D01*
X17708523Y-36912657D01*
X17803761Y-36817419D01*
X17851380Y-36674561D01*
X17851380Y-36579323D01*
X17851380Y-37960276D02*
X17851380Y-37388847D01*
X17851380Y-37674561D02*
X16851380Y-37674561D01*
X16994238Y-37579323D01*
X17089476Y-37484085D01*
X17137095Y-37388847D01*
X17279952Y-38531704D02*
X17232333Y-38436466D01*
X17184714Y-38388847D01*
X17089476Y-38341228D01*
X17041857Y-38341228D01*
X16946619Y-38388847D01*
X16899000Y-38436466D01*
X16851380Y-38531704D01*
X16851380Y-38722180D01*
X16899000Y-38817419D01*
X16946619Y-38865038D01*
X17041857Y-38912657D01*
X17089476Y-38912657D01*
X17184714Y-38865038D01*
X17232333Y-38817419D01*
X17279952Y-38722180D01*
X17279952Y-38531704D01*
X17327571Y-38436466D01*
X17375190Y-38388847D01*
X17470428Y-38341228D01*
X17660904Y-38341228D01*
X17756142Y-38388847D01*
X17803761Y-38436466D01*
X17851380Y-38531704D01*
X17851380Y-38722180D01*
X17803761Y-38817419D01*
X17756142Y-38865038D01*
X17660904Y-38912657D01*
X17470428Y-38912657D01*
X17375190Y-38865038D01*
X17327571Y-38817419D01*
X17279952Y-38722180D01*
%TO.C,J5*%
X15184885Y-78998000D02*
X15720600Y-78998000D01*
X15827742Y-78962285D01*
X15899171Y-78890857D01*
X15934885Y-78783714D01*
X15934885Y-78712285D01*
X15184885Y-79712285D02*
X15184885Y-79355142D01*
X15542028Y-79319428D01*
X15506314Y-79355142D01*
X15470600Y-79426571D01*
X15470600Y-79605142D01*
X15506314Y-79676571D01*
X15542028Y-79712285D01*
X15613457Y-79748000D01*
X15792028Y-79748000D01*
X15863457Y-79712285D01*
X15899171Y-79676571D01*
X15934885Y-79605142D01*
X15934885Y-79426571D01*
X15899171Y-79355142D01*
X15863457Y-79319428D01*
D11*
%TO.C,J14*%
X18810000Y-69970000D02*
X18810000Y-72630000D01*
X16210000Y-72630000D02*
X17540000Y-72630000D01*
X29030000Y-69970000D02*
X29030000Y-72630000D01*
X16210000Y-71300000D02*
X16210000Y-72630000D01*
X18810000Y-72630000D02*
X29030000Y-72630000D01*
X18810000Y-69970000D02*
X29030000Y-69970000D01*
%TO.C,J7*%
X970000Y-79250000D02*
X970000Y-80580000D01*
X13790000Y-77920000D02*
X13790000Y-80580000D01*
X3570000Y-77920000D02*
X13790000Y-77920000D01*
X970000Y-80580000D02*
X2300000Y-80580000D01*
X3570000Y-80580000D02*
X13790000Y-80580000D01*
X3570000Y-77920000D02*
X3570000Y-80580000D01*
%TO.C,J6*%
X3570000Y-70170000D02*
X13790000Y-70170000D01*
X970000Y-72830000D02*
X2300000Y-72830000D01*
X13790000Y-70170000D02*
X13790000Y-72830000D01*
X3570000Y-70170000D02*
X3570000Y-72830000D01*
X970000Y-71500000D02*
X970000Y-72830000D01*
X3570000Y-72830000D02*
X13790000Y-72830000D01*
%TO.C,J4*%
X18810000Y-30270000D02*
X29030000Y-30270000D01*
X29030000Y-30270000D02*
X29030000Y-32930000D01*
X18810000Y-30270000D02*
X18810000Y-32930000D01*
X16210000Y-32930000D02*
X17540000Y-32930000D01*
X16210000Y-31600000D02*
X16210000Y-32930000D01*
X18810000Y-32930000D02*
X29030000Y-32930000D01*
%TO.C,J18*%
X18810000Y-33670000D02*
X29030000Y-33670000D01*
X16210000Y-35000000D02*
X16210000Y-36330000D01*
X29030000Y-33670000D02*
X29030000Y-36330000D01*
X16210000Y-36330000D02*
X17540000Y-36330000D01*
X18810000Y-36330000D02*
X29030000Y-36330000D01*
X18810000Y-33670000D02*
X18810000Y-36330000D01*
%TO.C,J5*%
X18810000Y-77920000D02*
X18810000Y-80580000D01*
X18810000Y-80580000D02*
X29030000Y-80580000D01*
X16210000Y-80580000D02*
X17540000Y-80580000D01*
X29030000Y-77920000D02*
X29030000Y-80580000D01*
X16210000Y-79250000D02*
X16210000Y-80580000D01*
X18810000Y-77920000D02*
X29030000Y-77920000D01*
%TD*%
%LPC*%
D10*
X15785714Y-98597980D02*
X15785714Y-97931314D01*
X15785714Y-98121790D02*
X15738095Y-98026552D01*
X15690476Y-97978933D01*
X15595238Y-97931314D01*
X15500000Y-97931314D01*
X15309523Y-97931314D02*
X14928571Y-97931314D01*
X15166666Y-98597980D02*
X15166666Y-97740838D01*
X15119047Y-97645600D01*
X15023809Y-97597980D01*
X14928571Y-97597980D01*
X14214285Y-98550361D02*
X14309523Y-98597980D01*
X14500000Y-98597980D01*
X14595238Y-98550361D01*
X14642857Y-98455123D01*
X14642857Y-98074171D01*
X14595238Y-97978933D01*
X14500000Y-97931314D01*
X14309523Y-97931314D01*
X14214285Y-97978933D01*
X14166666Y-98074171D01*
X14166666Y-98169409D01*
X14642857Y-98264647D01*
D12*
%TO.C,J8*%
X13980000Y-85000000D03*
D13*
X2580000Y-85000000D03*
X10880000Y-85000000D03*
%TD*%
D12*
%TO.C,J10*%
X13980000Y-94900000D03*
D13*
X2580000Y-94900000D03*
X10880000Y-94900000D03*
%TD*%
D12*
%TO.C,J1*%
X13980000Y-35600000D03*
D13*
X2580000Y-35600000D03*
X10880000Y-35600000D03*
%TD*%
D14*
%TO.C,RV2*%
X18100000Y-6700000D03*
X26900000Y-6700000D03*
D15*
X25000000Y-13700000D03*
X22500000Y-13700000D03*
X20000000Y-13700000D03*
%TD*%
D12*
%TO.C,J2*%
X13980000Y-45700000D03*
D13*
X2580000Y-45700000D03*
X10880000Y-45700000D03*
%TD*%
D14*
%TO.C,RV1*%
X11900000Y-6700000D03*
X3100000Y-6700000D03*
D15*
X10000000Y-13700000D03*
X7500000Y-13700000D03*
X5000000Y-13700000D03*
%TD*%
D16*
%TO.C,J17*%
X15000000Y-62758000D03*
D17*
X15000000Y-65298000D03*
%TD*%
D12*
%TO.C,J11*%
X16020000Y-94900000D03*
D18*
X27420000Y-94900000D03*
X19120000Y-94900000D03*
%TD*%
D16*
%TO.C,J16*%
X17540000Y-68900000D03*
D17*
X20080000Y-68900000D03*
X22620000Y-68900000D03*
X25160000Y-68900000D03*
X27700000Y-68900000D03*
%TD*%
D12*
%TO.C,J3*%
X16020000Y-45700000D03*
D18*
X27420000Y-45700000D03*
X19120000Y-45700000D03*
%TD*%
D14*
%TO.C,RV3*%
X11900000Y-21400000D03*
X3100000Y-21400000D03*
D15*
X10000000Y-28400000D03*
X7500000Y-28400000D03*
X5000000Y-28400000D03*
%TD*%
D16*
%TO.C,J15*%
X17540000Y-75200000D03*
D17*
X20080000Y-75200000D03*
X22620000Y-75200000D03*
X25160000Y-75200000D03*
X27700000Y-75200000D03*
%TD*%
D16*
%TO.C,J13*%
X2300000Y-75200000D03*
D17*
X4840000Y-75200000D03*
X7380000Y-75200000D03*
X9920000Y-75200000D03*
X12460000Y-75200000D03*
%TD*%
D14*
%TO.C,RV4*%
X26900000Y-21400000D03*
X18100000Y-21400000D03*
D15*
X25000000Y-28400000D03*
X22500000Y-28400000D03*
X20000000Y-28400000D03*
%TD*%
D12*
%TO.C,J9*%
X16020000Y-85000000D03*
D18*
X27420000Y-85000000D03*
X19120000Y-85000000D03*
%TD*%
D16*
%TO.C,J12*%
X2300000Y-68900000D03*
D17*
X4840000Y-68900000D03*
X7380000Y-68900000D03*
X9920000Y-68900000D03*
X12460000Y-68900000D03*
%TD*%
D16*
%TO.C,J14*%
X17540000Y-71300000D03*
D17*
X20080000Y-71300000D03*
X22620000Y-71300000D03*
X25160000Y-71300000D03*
X27700000Y-71300000D03*
%TD*%
D16*
%TO.C,J7*%
X2300000Y-79250000D03*
D17*
X4840000Y-79250000D03*
X7380000Y-79250000D03*
X9920000Y-79250000D03*
X12460000Y-79250000D03*
%TD*%
D16*
%TO.C,J6*%
X2300000Y-71500000D03*
D17*
X4840000Y-71500000D03*
X7380000Y-71500000D03*
X9920000Y-71500000D03*
X12460000Y-71500000D03*
%TD*%
D16*
%TO.C,J4*%
X17540000Y-31600000D03*
D17*
X20080000Y-31600000D03*
X22620000Y-31600000D03*
X25160000Y-31600000D03*
X27700000Y-31600000D03*
%TD*%
D16*
%TO.C,J18*%
X17540000Y-35000000D03*
D17*
X20080000Y-35000000D03*
X22620000Y-35000000D03*
X25160000Y-35000000D03*
X27700000Y-35000000D03*
%TD*%
D16*
%TO.C,J5*%
X17540000Y-79250000D03*
D17*
X20080000Y-79250000D03*
X22620000Y-79250000D03*
X25160000Y-79250000D03*
X27700000Y-79250000D03*
%TD*%
M02*
