M48
; DRILL file {KiCad (6.0.0-0)} date Sunday, 16 January 2022 at 08:33:09
; FORMAT={-:-/ absolute / metric / decimal}
; #@! TF.CreationDate,2022-01-16T08:33:09+00:00
; #@! TF.GenerationSoftware,Kicad,Pcbnew,(6.0.0-0)
; #@! TF.FileFunction,MixedPlating,1,2
FMAT,2
METRIC
; #@! TA.AperFunction,Plated,PTH,ViaDrill
T1C0.400
; #@! TA.AperFunction,Plated,PTH,ComponentDrill
T2C0.600
; #@! TA.AperFunction,Plated,PTH,ComponentDrill
T3C1.000
; #@! TA.AperFunction,NonPlated,NPTH,ComponentDrill
T4C2.000
%
G90
G05
T1
X3.556Y-73.406
X3.556Y-77.47
X3.81Y-54.61
X3.81Y-57.15
X3.81Y-70.358
X5.461Y-59.792
X6.096Y-70.358
X6.096Y-73.406
X6.096Y-77.47
X6.35Y-2.54
X6.35Y-10.16
X6.35Y-17.78
X6.35Y-25.4
X7.62Y-6.35
X7.62Y-21.59
X7.62Y-40.64
X7.62Y-62.23
X8.636Y-77.47
X8.89Y-2.54
X8.89Y-10.16
X8.89Y-17.78
X8.89Y-25.4
X11.176Y-70.358
X11.176Y-73.406
X11.176Y-77.47
X11.43Y-54.61
X11.43Y-57.15
X15.24Y-2.54
X15.24Y-10.16
X17.196Y-33.426
X17.78Y-54.61
X17.78Y-57.15
X18.796Y-73.152
X19.05Y-77.216
X21.59Y-2.54
X21.59Y-10.16
X21.59Y-17.78
X21.59Y-25.4
X21.59Y-54.61
X21.59Y-57.15
X21.59Y-77.216
X22.098Y-65.024
X22.86Y-6.35
X22.86Y-40.64
X22.86Y-62.23
X23.876Y-70.104
X23.876Y-73.152
X24.13Y-2.54
X24.13Y-10.16
X24.13Y-77.216
X26.416Y-70.104
X26.416Y-73.152
X26.67Y-77.216
X27.178Y-61.722
X29.21Y-33.02
X29.21Y-53.975
T3
X2.3Y-68.9
X2.3Y-71.5
X2.3Y-75.2
X2.3Y-79.25
X4.84Y-68.9
X4.84Y-71.5
X4.84Y-75.2
X4.84Y-79.25
X5.0Y-13.7
X5.0Y-28.4
X7.38Y-68.9
X7.38Y-71.5
X7.38Y-75.2
X7.38Y-79.25
X7.5Y-13.7
X7.5Y-28.4
X9.92Y-68.9
X9.92Y-71.5
X9.92Y-75.2
X9.92Y-79.25
X10.0Y-13.7
X10.0Y-28.4
X12.46Y-68.9
X12.46Y-71.5
X12.46Y-75.2
X12.46Y-79.25
X15.0Y-62.758
X15.0Y-65.298
X17.54Y-31.6
X17.54Y-35.0
X17.54Y-68.9
X17.54Y-71.3
X17.54Y-75.2
X17.54Y-79.25
X20.0Y-13.7
X20.0Y-28.4
X20.08Y-31.6
X20.08Y-35.0
X20.08Y-68.9
X20.08Y-71.3
X20.08Y-75.2
X20.08Y-79.25
X22.5Y-13.7
X22.5Y-28.4
X22.62Y-31.6
X22.62Y-35.0
X22.62Y-68.9
X22.62Y-71.3
X22.62Y-75.2
X22.62Y-79.25
X25.0Y-13.7
X25.0Y-28.4
X25.16Y-31.6
X25.16Y-35.0
X25.16Y-68.9
X25.16Y-71.3
X25.16Y-75.2
X25.16Y-79.25
X27.7Y-31.6
X27.7Y-35.0
X27.7Y-68.9
X27.7Y-71.3
X27.7Y-75.2
X27.7Y-79.25
T4
X3.1Y-6.7
X3.1Y-21.4
X11.9Y-6.7
X11.9Y-21.4
X18.1Y-6.7
X18.1Y-21.4
X26.9Y-6.7
X26.9Y-21.4
T2
G00X2.58Y-36.1
M15
G01X2.58Y-35.1
M16
G05
G00X2.58Y-46.2
M15
G01X2.58Y-45.2
M16
G05
G00X2.58Y-85.5
M15
G01X2.58Y-84.5
M16
G05
G00X2.58Y-95.4
M15
G01X2.58Y-94.4
M16
G05
G00X10.88Y-36.1
M15
G01X10.88Y-35.1
M16
G05
G00X10.88Y-46.2
M15
G01X10.88Y-45.2
M16
G05
G00X10.88Y-85.5
M15
G01X10.88Y-84.5
M16
G05
G00X10.88Y-95.4
M15
G01X10.88Y-94.4
M16
G05
G00X13.98Y-36.1
M15
G01X13.98Y-35.1
M16
G05
G00X13.98Y-46.2
M15
G01X13.98Y-45.2
M16
G05
G00X13.98Y-85.5
M15
G01X13.98Y-84.5
M16
G05
G00X13.98Y-95.4
M15
G01X13.98Y-94.4
M16
G05
G00X16.02Y-45.2
M15
G01X16.02Y-46.2
M16
G05
G00X16.02Y-84.5
M15
G01X16.02Y-85.5
M16
G05
G00X16.02Y-94.4
M15
G01X16.02Y-95.4
M16
G05
G00X19.12Y-45.2
M15
G01X19.12Y-46.2
M16
G05
G00X19.12Y-84.5
M15
G01X19.12Y-85.5
M16
G05
G00X19.12Y-94.4
M15
G01X19.12Y-95.4
M16
G05
G00X27.42Y-45.2
M15
G01X27.42Y-46.2
M16
G05
G00X27.42Y-84.5
M15
G01X27.42Y-85.5
M16
G05
G00X27.42Y-94.4
M15
G01X27.42Y-95.4
M16
G05
T0
M30
