%TF.GenerationSoftware,KiCad,Pcbnew,(6.0.0-0)*%
%TF.CreationDate,2022-01-16T08:33:06+00:00*%
%TF.ProjectId,curly-memory-interface-board,6375726c-792d-46d6-956d-6f72792d696e,rev?*%
%TF.SameCoordinates,Original*%
%TF.FileFunction,Legend,Top*%
%TF.FilePolarity,Positive*%
%FSLAX46Y46*%
G04 Gerber Fmt 4.6, Leading zero omitted, Abs format (unit mm)*
G04 Created by KiCad (PCBNEW (6.0.0-0)) date 2022-01-16 08:33:06*
%MOMM*%
%LPD*%
G01*
G04 APERTURE LIST*
G04 Aperture macros list*
%AMRoundRect*
0 Rectangle with rounded corners*
0 $1 Rounding radius*
0 $2 $3 $4 $5 $6 $7 $8 $9 X,Y pos of 4 corners*
0 Add a 4 corners polygon primitive as box body*
4,1,4,$2,$3,$4,$5,$6,$7,$8,$9,$2,$3,0*
0 Add four circle primitives for the rounded corners*
1,1,$1+$1,$2,$3*
1,1,$1+$1,$4,$5*
1,1,$1+$1,$6,$7*
1,1,$1+$1,$8,$9*
0 Add four rect primitives between the rounded corners*
20,1,$1+$1,$2,$3,$4,$5,0*
20,1,$1+$1,$4,$5,$6,$7,0*
20,1,$1+$1,$6,$7,$8,$9,0*
20,1,$1+$1,$8,$9,$2,$3,0*%
G04 Aperture macros list end*
%ADD10C,0.150000*%
%ADD11C,0.200000*%
%ADD12C,0.120000*%
%ADD13O,2.300000X3.100000*%
%ADD14RoundRect,0.650000X0.650000X-0.650000X0.650000X0.650000X-0.650000X0.650000X-0.650000X-0.650000X0*%
%ADD15R,1.300000X1.550000*%
%ADD16R,1.500000X1.000000*%
%ADD17C,4.000000*%
%ADD18C,1.800000*%
%ADD19R,1.700000X1.700000*%
%ADD20O,1.700000X1.700000*%
%ADD21RoundRect,0.650000X-0.650000X0.650000X-0.650000X-0.650000X0.650000X-0.650000X0.650000X0.650000X0*%
G04 APERTURE END LIST*
D10*
%TO.C,J8*%
X13066780Y-88801533D02*
X13781066Y-88801533D01*
X13923923Y-88849152D01*
X14019161Y-88944390D01*
X14066780Y-89087247D01*
X14066780Y-89182485D01*
X13495352Y-88182485D02*
X13447733Y-88277723D01*
X13400114Y-88325342D01*
X13304876Y-88372961D01*
X13257257Y-88372961D01*
X13162019Y-88325342D01*
X13114400Y-88277723D01*
X13066780Y-88182485D01*
X13066780Y-87992009D01*
X13114400Y-87896771D01*
X13162019Y-87849152D01*
X13257257Y-87801533D01*
X13304876Y-87801533D01*
X13400114Y-87849152D01*
X13447733Y-87896771D01*
X13495352Y-87992009D01*
X13495352Y-88182485D01*
X13542971Y-88277723D01*
X13590590Y-88325342D01*
X13685828Y-88372961D01*
X13876304Y-88372961D01*
X13971542Y-88325342D01*
X14019161Y-88277723D01*
X14066780Y-88182485D01*
X14066780Y-87992009D01*
X14019161Y-87896771D01*
X13971542Y-87849152D01*
X13876304Y-87801533D01*
X13685828Y-87801533D01*
X13590590Y-87849152D01*
X13542971Y-87896771D01*
X13495352Y-87992009D01*
%TO.C,J10*%
X13066780Y-99005923D02*
X13781066Y-99005923D01*
X13923923Y-99053542D01*
X14019161Y-99148780D01*
X14066780Y-99291638D01*
X14066780Y-99386876D01*
X14066780Y-98005923D02*
X14066780Y-98577352D01*
X14066780Y-98291638D02*
X13066780Y-98291638D01*
X13209638Y-98386876D01*
X13304876Y-98482114D01*
X13352495Y-98577352D01*
X13066780Y-97386876D02*
X13066780Y-97291638D01*
X13114400Y-97196400D01*
X13162019Y-97148780D01*
X13257257Y-97101161D01*
X13447733Y-97053542D01*
X13685828Y-97053542D01*
X13876304Y-97101161D01*
X13971542Y-97148780D01*
X14019161Y-97196400D01*
X14066780Y-97291638D01*
X14066780Y-97386876D01*
X14019161Y-97482114D01*
X13971542Y-97529733D01*
X13876304Y-97577352D01*
X13685828Y-97624971D01*
X13447733Y-97624971D01*
X13257257Y-97577352D01*
X13162019Y-97529733D01*
X13114400Y-97482114D01*
X13066780Y-97386876D01*
%TO.C,SW3*%
X3500000Y-60303571D02*
X3607142Y-60339285D01*
X3785714Y-60339285D01*
X3857142Y-60303571D01*
X3892857Y-60267857D01*
X3928571Y-60196428D01*
X3928571Y-60125000D01*
X3892857Y-60053571D01*
X3857142Y-60017857D01*
X3785714Y-59982142D01*
X3642857Y-59946428D01*
X3571428Y-59910714D01*
X3535714Y-59875000D01*
X3500000Y-59803571D01*
X3500000Y-59732142D01*
X3535714Y-59660714D01*
X3571428Y-59625000D01*
X3642857Y-59589285D01*
X3821428Y-59589285D01*
X3928571Y-59625000D01*
X4178571Y-59589285D02*
X4357142Y-60339285D01*
X4500000Y-59803571D01*
X4642857Y-60339285D01*
X4821428Y-59589285D01*
X5035714Y-59589285D02*
X5500000Y-59589285D01*
X5250000Y-59875000D01*
X5357142Y-59875000D01*
X5428571Y-59910714D01*
X5464285Y-59946428D01*
X5500000Y-60017857D01*
X5500000Y-60196428D01*
X5464285Y-60267857D01*
X5428571Y-60303571D01*
X5357142Y-60339285D01*
X5142857Y-60339285D01*
X5071428Y-60303571D01*
X5035714Y-60267857D01*
%TO.C,D1*%
X2469028Y-64347285D02*
X2469028Y-63597285D01*
X2647600Y-63597285D01*
X2754742Y-63633000D01*
X2826171Y-63704428D01*
X2861885Y-63775857D01*
X2897600Y-63918714D01*
X2897600Y-64025857D01*
X2861885Y-64168714D01*
X2826171Y-64240142D01*
X2754742Y-64311571D01*
X2647600Y-64347285D01*
X2469028Y-64347285D01*
X3611885Y-64347285D02*
X3183314Y-64347285D01*
X3397600Y-64347285D02*
X3397600Y-63597285D01*
X3326171Y-63704428D01*
X3254742Y-63775857D01*
X3183314Y-63811571D01*
X11935714Y-66052380D02*
X11364285Y-66052380D01*
X11650000Y-66052380D02*
X11650000Y-65052380D01*
X11554761Y-65195238D01*
X11459523Y-65290476D01*
X11364285Y-65338095D01*
%TO.C,J1*%
X13066780Y-38929933D02*
X13781066Y-38929933D01*
X13923923Y-38977552D01*
X14019161Y-39072790D01*
X14066780Y-39215647D01*
X14066780Y-39310885D01*
X14066780Y-37929933D02*
X14066780Y-38501361D01*
X14066780Y-38215647D02*
X13066780Y-38215647D01*
X13209638Y-38310885D01*
X13304876Y-38406123D01*
X13352495Y-38501361D01*
%TO.C,SW2*%
X24500000Y-60303571D02*
X24607142Y-60339285D01*
X24785714Y-60339285D01*
X24857142Y-60303571D01*
X24892857Y-60267857D01*
X24928571Y-60196428D01*
X24928571Y-60125000D01*
X24892857Y-60053571D01*
X24857142Y-60017857D01*
X24785714Y-59982142D01*
X24642857Y-59946428D01*
X24571428Y-59910714D01*
X24535714Y-59875000D01*
X24500000Y-59803571D01*
X24500000Y-59732142D01*
X24535714Y-59660714D01*
X24571428Y-59625000D01*
X24642857Y-59589285D01*
X24821428Y-59589285D01*
X24928571Y-59625000D01*
X25178571Y-59589285D02*
X25357142Y-60339285D01*
X25500000Y-59803571D01*
X25642857Y-60339285D01*
X25821428Y-59589285D01*
X26071428Y-59660714D02*
X26107142Y-59625000D01*
X26178571Y-59589285D01*
X26357142Y-59589285D01*
X26428571Y-59625000D01*
X26464285Y-59660714D01*
X26500000Y-59732142D01*
X26500000Y-59803571D01*
X26464285Y-59910714D01*
X26035714Y-60339285D01*
X26500000Y-60339285D01*
%TO.C,RV2*%
X27014561Y-14396980D02*
X26681228Y-13920790D01*
X26443133Y-14396980D02*
X26443133Y-13396980D01*
X26824085Y-13396980D01*
X26919323Y-13444600D01*
X26966942Y-13492219D01*
X27014561Y-13587457D01*
X27014561Y-13730314D01*
X26966942Y-13825552D01*
X26919323Y-13873171D01*
X26824085Y-13920790D01*
X26443133Y-13920790D01*
X27300276Y-13396980D02*
X27633609Y-14396980D01*
X27966942Y-13396980D01*
X28252657Y-13492219D02*
X28300276Y-13444600D01*
X28395514Y-13396980D01*
X28633609Y-13396980D01*
X28728847Y-13444600D01*
X28776466Y-13492219D01*
X28824085Y-13587457D01*
X28824085Y-13682695D01*
X28776466Y-13825552D01*
X28205038Y-14396980D01*
X28824085Y-14396980D01*
%TO.C,J2*%
X13066780Y-49710933D02*
X13781066Y-49710933D01*
X13923923Y-49758552D01*
X14019161Y-49853790D01*
X14066780Y-49996647D01*
X14066780Y-50091885D01*
X13162019Y-49282361D02*
X13114400Y-49234742D01*
X13066780Y-49139504D01*
X13066780Y-48901409D01*
X13114400Y-48806171D01*
X13162019Y-48758552D01*
X13257257Y-48710933D01*
X13352495Y-48710933D01*
X13495352Y-48758552D01*
X14066780Y-49329980D01*
X14066780Y-48710933D01*
%TO.C,RV1*%
X11977761Y-14346180D02*
X11644428Y-13869990D01*
X11406333Y-14346180D02*
X11406333Y-13346180D01*
X11787285Y-13346180D01*
X11882523Y-13393800D01*
X11930142Y-13441419D01*
X11977761Y-13536657D01*
X11977761Y-13679514D01*
X11930142Y-13774752D01*
X11882523Y-13822371D01*
X11787285Y-13869990D01*
X11406333Y-13869990D01*
X12263476Y-13346180D02*
X12596809Y-14346180D01*
X12930142Y-13346180D01*
X13787285Y-14346180D02*
X13215857Y-14346180D01*
X13501571Y-14346180D02*
X13501571Y-13346180D01*
X13406333Y-13489038D01*
X13311095Y-13584276D01*
X13215857Y-13631895D01*
%TO.C,J17*%
X12390885Y-63345142D02*
X12926600Y-63345142D01*
X13033742Y-63380857D01*
X13105171Y-63452285D01*
X13140885Y-63559428D01*
X13140885Y-63630857D01*
X13140885Y-62595142D02*
X13140885Y-63023714D01*
X13140885Y-62809428D02*
X12390885Y-62809428D01*
X12498028Y-62880857D01*
X12569457Y-62952285D01*
X12605171Y-63023714D01*
X12390885Y-62345142D02*
X12390885Y-61845142D01*
X13140885Y-62166571D01*
%TO.C,J11*%
X16140180Y-99005923D02*
X16854466Y-99005923D01*
X16997323Y-99053542D01*
X17092561Y-99148780D01*
X17140180Y-99291638D01*
X17140180Y-99386876D01*
X17140180Y-98005923D02*
X17140180Y-98577352D01*
X17140180Y-98291638D02*
X16140180Y-98291638D01*
X16283038Y-98386876D01*
X16378276Y-98482114D01*
X16425895Y-98577352D01*
X17140180Y-97053542D02*
X17140180Y-97624971D01*
X17140180Y-97339257D02*
X16140180Y-97339257D01*
X16283038Y-97434495D01*
X16378276Y-97529733D01*
X16425895Y-97624971D01*
%TO.C,J16*%
X15235685Y-69390342D02*
X15771400Y-69390342D01*
X15878542Y-69426057D01*
X15949971Y-69497485D01*
X15985685Y-69604628D01*
X15985685Y-69676057D01*
X15985685Y-68640342D02*
X15985685Y-69068914D01*
X15985685Y-68854628D02*
X15235685Y-68854628D01*
X15342828Y-68926057D01*
X15414257Y-68997485D01*
X15449971Y-69068914D01*
X15235685Y-67997485D02*
X15235685Y-68140342D01*
X15271400Y-68211771D01*
X15307114Y-68247485D01*
X15414257Y-68318914D01*
X15557114Y-68354628D01*
X15842828Y-68354628D01*
X15914257Y-68318914D01*
X15949971Y-68283200D01*
X15985685Y-68211771D01*
X15985685Y-68068914D01*
X15949971Y-67997485D01*
X15914257Y-67961771D01*
X15842828Y-67926057D01*
X15664257Y-67926057D01*
X15592828Y-67961771D01*
X15557114Y-67997485D01*
X15521400Y-68068914D01*
X15521400Y-68211771D01*
X15557114Y-68283200D01*
X15592828Y-68318914D01*
X15664257Y-68354628D01*
%TO.C,J3*%
X16140180Y-49710933D02*
X16854466Y-49710933D01*
X16997323Y-49758552D01*
X17092561Y-49853790D01*
X17140180Y-49996647D01*
X17140180Y-50091885D01*
X16140180Y-49329980D02*
X16140180Y-48710933D01*
X16521133Y-49044266D01*
X16521133Y-48901409D01*
X16568752Y-48806171D01*
X16616371Y-48758552D01*
X16711609Y-48710933D01*
X16949704Y-48710933D01*
X17044942Y-48758552D01*
X17092561Y-48806171D01*
X17140180Y-48901409D01*
X17140180Y-49187123D01*
X17092561Y-49282361D01*
X17044942Y-49329980D01*
%TO.C,RV3*%
X11901561Y-29205180D02*
X11568228Y-28728990D01*
X11330133Y-29205180D02*
X11330133Y-28205180D01*
X11711085Y-28205180D01*
X11806323Y-28252800D01*
X11853942Y-28300419D01*
X11901561Y-28395657D01*
X11901561Y-28538514D01*
X11853942Y-28633752D01*
X11806323Y-28681371D01*
X11711085Y-28728990D01*
X11330133Y-28728990D01*
X12187276Y-28205180D02*
X12520609Y-29205180D01*
X12853942Y-28205180D01*
X13092038Y-28205180D02*
X13711085Y-28205180D01*
X13377752Y-28586133D01*
X13520609Y-28586133D01*
X13615847Y-28633752D01*
X13663466Y-28681371D01*
X13711085Y-28776609D01*
X13711085Y-29014704D01*
X13663466Y-29109942D01*
X13615847Y-29157561D01*
X13520609Y-29205180D01*
X13234895Y-29205180D01*
X13139657Y-29157561D01*
X13092038Y-29109942D01*
%TO.C,D2*%
X17469028Y-64347285D02*
X17469028Y-63597285D01*
X17647600Y-63597285D01*
X17754742Y-63633000D01*
X17826171Y-63704428D01*
X17861885Y-63775857D01*
X17897600Y-63918714D01*
X17897600Y-64025857D01*
X17861885Y-64168714D01*
X17826171Y-64240142D01*
X17754742Y-64311571D01*
X17647600Y-64347285D01*
X17469028Y-64347285D01*
X18183314Y-63668714D02*
X18219028Y-63633000D01*
X18290457Y-63597285D01*
X18469028Y-63597285D01*
X18540457Y-63633000D01*
X18576171Y-63668714D01*
X18611885Y-63740142D01*
X18611885Y-63811571D01*
X18576171Y-63918714D01*
X18147600Y-64347285D01*
X18611885Y-64347285D01*
X26935714Y-66052380D02*
X26364285Y-66052380D01*
X26650000Y-66052380D02*
X26650000Y-65052380D01*
X26554761Y-65195238D01*
X26459523Y-65290476D01*
X26364285Y-65338095D01*
%TO.C,SW4*%
X10500000Y-60303571D02*
X10607142Y-60339285D01*
X10785714Y-60339285D01*
X10857142Y-60303571D01*
X10892857Y-60267857D01*
X10928571Y-60196428D01*
X10928571Y-60125000D01*
X10892857Y-60053571D01*
X10857142Y-60017857D01*
X10785714Y-59982142D01*
X10642857Y-59946428D01*
X10571428Y-59910714D01*
X10535714Y-59875000D01*
X10500000Y-59803571D01*
X10500000Y-59732142D01*
X10535714Y-59660714D01*
X10571428Y-59625000D01*
X10642857Y-59589285D01*
X10821428Y-59589285D01*
X10928571Y-59625000D01*
X11178571Y-59589285D02*
X11357142Y-60339285D01*
X11500000Y-59803571D01*
X11642857Y-60339285D01*
X11821428Y-59589285D01*
X12428571Y-59839285D02*
X12428571Y-60339285D01*
X12250000Y-59553571D02*
X12071428Y-60089285D01*
X12535714Y-60089285D01*
%TO.C,J15*%
X15134085Y-75765742D02*
X15669800Y-75765742D01*
X15776942Y-75801457D01*
X15848371Y-75872885D01*
X15884085Y-75980028D01*
X15884085Y-76051457D01*
X15884085Y-75015742D02*
X15884085Y-75444314D01*
X15884085Y-75230028D02*
X15134085Y-75230028D01*
X15241228Y-75301457D01*
X15312657Y-75372885D01*
X15348371Y-75444314D01*
X15134085Y-74337171D02*
X15134085Y-74694314D01*
X15491228Y-74730028D01*
X15455514Y-74694314D01*
X15419800Y-74622885D01*
X15419800Y-74444314D01*
X15455514Y-74372885D01*
X15491228Y-74337171D01*
X15562657Y-74301457D01*
X15741228Y-74301457D01*
X15812657Y-74337171D01*
X15848371Y-74372885D01*
X15884085Y-74444314D01*
X15884085Y-74622885D01*
X15848371Y-74694314D01*
X15812657Y-74730028D01*
%TO.C,SW1*%
X17500000Y-60303571D02*
X17607142Y-60339285D01*
X17785714Y-60339285D01*
X17857142Y-60303571D01*
X17892857Y-60267857D01*
X17928571Y-60196428D01*
X17928571Y-60125000D01*
X17892857Y-60053571D01*
X17857142Y-60017857D01*
X17785714Y-59982142D01*
X17642857Y-59946428D01*
X17571428Y-59910714D01*
X17535714Y-59875000D01*
X17500000Y-59803571D01*
X17500000Y-59732142D01*
X17535714Y-59660714D01*
X17571428Y-59625000D01*
X17642857Y-59589285D01*
X17821428Y-59589285D01*
X17928571Y-59625000D01*
X18178571Y-59589285D02*
X18357142Y-60339285D01*
X18500000Y-59803571D01*
X18642857Y-60339285D01*
X18821428Y-59589285D01*
X19500000Y-60339285D02*
X19071428Y-60339285D01*
X19285714Y-60339285D02*
X19285714Y-59589285D01*
X19214285Y-59696428D01*
X19142857Y-59767857D01*
X19071428Y-59803571D01*
%TO.C,J13*%
X13991085Y-75807142D02*
X14526800Y-75807142D01*
X14633942Y-75842857D01*
X14705371Y-75914285D01*
X14741085Y-76021428D01*
X14741085Y-76092857D01*
X14741085Y-75057142D02*
X14741085Y-75485714D01*
X14741085Y-75271428D02*
X13991085Y-75271428D01*
X14098228Y-75342857D01*
X14169657Y-75414285D01*
X14205371Y-75485714D01*
X13991085Y-74807142D02*
X13991085Y-74342857D01*
X14276800Y-74592857D01*
X14276800Y-74485714D01*
X14312514Y-74414285D01*
X14348228Y-74378571D01*
X14419657Y-74342857D01*
X14598228Y-74342857D01*
X14669657Y-74378571D01*
X14705371Y-74414285D01*
X14741085Y-74485714D01*
X14741085Y-74700000D01*
X14705371Y-74771428D01*
X14669657Y-74807142D01*
%TO.C,RV4*%
X26963761Y-29027380D02*
X26630428Y-28551190D01*
X26392333Y-29027380D02*
X26392333Y-28027380D01*
X26773285Y-28027380D01*
X26868523Y-28075000D01*
X26916142Y-28122619D01*
X26963761Y-28217857D01*
X26963761Y-28360714D01*
X26916142Y-28455952D01*
X26868523Y-28503571D01*
X26773285Y-28551190D01*
X26392333Y-28551190D01*
X27249476Y-28027380D02*
X27582809Y-29027380D01*
X27916142Y-28027380D01*
X28678047Y-28360714D02*
X28678047Y-29027380D01*
X28439952Y-27979761D02*
X28201857Y-28694047D01*
X28820904Y-28694047D01*
%TO.C,J9*%
X16140180Y-88801533D02*
X16854466Y-88801533D01*
X16997323Y-88849152D01*
X17092561Y-88944390D01*
X17140180Y-89087247D01*
X17140180Y-89182485D01*
X17140180Y-88277723D02*
X17140180Y-88087247D01*
X17092561Y-87992009D01*
X17044942Y-87944390D01*
X16902085Y-87849152D01*
X16711609Y-87801533D01*
X16330657Y-87801533D01*
X16235419Y-87849152D01*
X16187800Y-87896771D01*
X16140180Y-87992009D01*
X16140180Y-88182485D01*
X16187800Y-88277723D01*
X16235419Y-88325342D01*
X16330657Y-88372961D01*
X16568752Y-88372961D01*
X16663990Y-88325342D01*
X16711609Y-88277723D01*
X16759228Y-88182485D01*
X16759228Y-87992009D01*
X16711609Y-87896771D01*
X16663990Y-87849152D01*
X16568752Y-87801533D01*
%TO.C,J12*%
X13991085Y-69507142D02*
X14526800Y-69507142D01*
X14633942Y-69542857D01*
X14705371Y-69614285D01*
X14741085Y-69721428D01*
X14741085Y-69792857D01*
X14741085Y-68757142D02*
X14741085Y-69185714D01*
X14741085Y-68971428D02*
X13991085Y-68971428D01*
X14098228Y-69042857D01*
X14169657Y-69114285D01*
X14205371Y-69185714D01*
X14062514Y-68471428D02*
X14026800Y-68435714D01*
X13991085Y-68364285D01*
X13991085Y-68185714D01*
X14026800Y-68114285D01*
X14062514Y-68078571D01*
X14133942Y-68042857D01*
X14205371Y-68042857D01*
X14312514Y-68078571D01*
X14741085Y-68507142D01*
X14741085Y-68042857D01*
D11*
%TO.C,J8*%
X12000000Y-89500000D02*
X1500000Y-89500000D01*
X1500000Y-89500000D02*
X1500000Y-86600000D01*
X12000000Y-80500000D02*
X1500000Y-80500000D01*
X12000000Y-89500000D02*
X12000000Y-86500000D01*
X1500000Y-83400000D02*
X1500000Y-80500000D01*
X12000000Y-83500000D02*
X12000000Y-80500000D01*
D12*
X4604999Y-85000000D02*
G75*
G03*
X10088577Y-86296263I2895001J0D01*
G01*
X10088576Y-83703737D02*
G75*
G03*
X4605000Y-85000000I-2588576J-1296263D01*
G01*
X9300000Y-85000000D02*
G75*
G03*
X9300000Y-85000000I-1800000J0D01*
G01*
D11*
%TO.C,J10*%
X12000000Y-99400000D02*
X12000000Y-96400000D01*
X1500000Y-93300000D02*
X1500000Y-90400000D01*
X12000000Y-90400000D02*
X1500000Y-90400000D01*
X12000000Y-93400000D02*
X12000000Y-90400000D01*
X1500000Y-99400000D02*
X1500000Y-96500000D01*
X12000000Y-99400000D02*
X1500000Y-99400000D01*
D12*
X4604999Y-94900000D02*
G75*
G03*
X10088577Y-96196263I2895001J0D01*
G01*
X10088576Y-93603737D02*
G75*
G03*
X4605000Y-94900000I-2588576J-1296263D01*
G01*
X9300000Y-94900000D02*
G75*
G03*
X9300000Y-94900000I-1800000J0D01*
G01*
%TO.C,SW3*%
X1270000Y-59030000D02*
X1270000Y-52570000D01*
X1270000Y-52570000D02*
X1300000Y-52570000D01*
X3200000Y-59030000D02*
X5800000Y-59030000D01*
X7730000Y-59030000D02*
X7700000Y-59030000D01*
X3200000Y-52570000D02*
X5800000Y-52570000D01*
X1300000Y-59030000D02*
X1270000Y-59030000D01*
X7730000Y-59030000D02*
X7730000Y-52570000D01*
X7730000Y-52570000D02*
X7700000Y-52570000D01*
%TO.C,D1*%
X11150000Y-66750000D02*
X3850000Y-66750000D01*
X11150000Y-61250000D02*
X3850000Y-61250000D01*
X3850000Y-61250000D02*
X3850000Y-62400000D01*
D11*
%TO.C,J1*%
X12000000Y-40100000D02*
X12000000Y-37100000D01*
X1500000Y-40100000D02*
X1500000Y-37200000D01*
X12000000Y-40100000D02*
X1500000Y-40100000D01*
X1500000Y-34000000D02*
X1500000Y-31100000D01*
X12000000Y-31100000D02*
X1500000Y-31100000D01*
X12000000Y-34100000D02*
X12000000Y-31100000D01*
D12*
X4604999Y-35600000D02*
G75*
G03*
X10088577Y-36896263I2895001J0D01*
G01*
X10088576Y-34303737D02*
G75*
G03*
X4605000Y-35600000I-2588576J-1296263D01*
G01*
X9300000Y-35600000D02*
G75*
G03*
X9300000Y-35600000I-1800000J0D01*
G01*
%TO.C,SW2*%
X22270000Y-59030000D02*
X22300000Y-59030000D01*
X28730000Y-59030000D02*
X28700000Y-59030000D01*
X28700000Y-52570000D02*
X28730000Y-52570000D01*
X28730000Y-52570000D02*
X28730000Y-59030000D01*
X22270000Y-52570000D02*
X22300000Y-52570000D01*
X26800000Y-52570000D02*
X24200000Y-52570000D01*
X22270000Y-52570000D02*
X22270000Y-59030000D01*
X26800000Y-59030000D02*
X24200000Y-59030000D01*
%TO.C,RV2*%
X17530000Y-580000D02*
X27470000Y-580000D01*
X17530000Y-4445000D02*
X17530000Y-580000D01*
X20871000Y-12820000D02*
X21630000Y-12820000D01*
X17530000Y-12820000D02*
X17530000Y-8955000D01*
X27470000Y-12820000D02*
X27470000Y-8955000D01*
X23371000Y-12820000D02*
X24130000Y-12820000D01*
X27470000Y-4445000D02*
X27470000Y-580000D01*
X25870000Y-12820000D02*
X27470000Y-12820000D01*
X17530000Y-12820000D02*
X19129000Y-12820000D01*
D11*
%TO.C,J2*%
X12000000Y-50200000D02*
X1500000Y-50200000D01*
X1500000Y-50200000D02*
X1500000Y-47300000D01*
X1500000Y-44100000D02*
X1500000Y-41200000D01*
X12000000Y-41200000D02*
X1500000Y-41200000D01*
X12000000Y-44200000D02*
X12000000Y-41200000D01*
X12000000Y-50200000D02*
X12000000Y-47200000D01*
D12*
X4604999Y-45700000D02*
G75*
G03*
X10088577Y-46996263I2895001J0D01*
G01*
X10088576Y-44403737D02*
G75*
G03*
X4605000Y-45700000I-2588576J-1296263D01*
G01*
X9300000Y-45700000D02*
G75*
G03*
X9300000Y-45700000I-1800000J0D01*
G01*
%TO.C,RV1*%
X5871000Y-12820000D02*
X6630000Y-12820000D01*
X2530000Y-12820000D02*
X2530000Y-8955000D01*
X2530000Y-580000D02*
X12470000Y-580000D01*
X8371000Y-12820000D02*
X9130000Y-12820000D01*
X10870000Y-12820000D02*
X12470000Y-12820000D01*
X12470000Y-4445000D02*
X12470000Y-580000D01*
X2530000Y-12820000D02*
X4129000Y-12820000D01*
X12470000Y-12820000D02*
X12470000Y-8955000D01*
X2530000Y-4445000D02*
X2530000Y-580000D01*
%TO.C,J17*%
X16330000Y-61428000D02*
X16330000Y-62758000D01*
X13670000Y-64028000D02*
X13670000Y-66628000D01*
X16330000Y-64028000D02*
X16330000Y-66628000D01*
X13670000Y-64028000D02*
X16330000Y-64028000D01*
X13670000Y-66628000D02*
X16330000Y-66628000D01*
X15000000Y-61428000D02*
X16330000Y-61428000D01*
D11*
%TO.C,J11*%
X18000000Y-96400000D02*
X18000000Y-99400000D01*
X18000000Y-90400000D02*
X18000000Y-93400000D01*
X18000000Y-90400000D02*
X28500000Y-90400000D01*
X18000000Y-99400000D02*
X28500000Y-99400000D01*
X28500000Y-90400000D02*
X28500000Y-93300000D01*
X28500000Y-96500000D02*
X28500000Y-99400000D01*
D12*
X25395001Y-94900000D02*
G75*
G03*
X19911423Y-93603737I-2895001J0D01*
G01*
X19911424Y-96196263D02*
G75*
G03*
X25395000Y-94900000I2588576J1296263D01*
G01*
X24300000Y-94900000D02*
G75*
G03*
X24300000Y-94900000I-1800000J0D01*
G01*
%TO.C,J16*%
X18810000Y-70230000D02*
X18810000Y-67570000D01*
X16210000Y-70230000D02*
X16210000Y-68900000D01*
X17540000Y-70230000D02*
X16210000Y-70230000D01*
X29030000Y-70230000D02*
X29030000Y-67570000D01*
X18810000Y-67570000D02*
X29030000Y-67570000D01*
X18810000Y-70230000D02*
X29030000Y-70230000D01*
D11*
%TO.C,J3*%
X18000000Y-50200000D02*
X28500000Y-50200000D01*
X28500000Y-47300000D02*
X28500000Y-50200000D01*
X18000000Y-47200000D02*
X18000000Y-50200000D01*
X18000000Y-41200000D02*
X18000000Y-44200000D01*
X18000000Y-41200000D02*
X28500000Y-41200000D01*
X28500000Y-41200000D02*
X28500000Y-44100000D01*
D12*
X25395001Y-45700000D02*
G75*
G03*
X19911423Y-44403737I-2895001J0D01*
G01*
X19911424Y-46996263D02*
G75*
G03*
X25395000Y-45700000I2588576J1296263D01*
G01*
X24300000Y-45700000D02*
G75*
G03*
X24300000Y-45700000I-1800000J0D01*
G01*
%TO.C,RV3*%
X2530000Y-19145000D02*
X2530000Y-15280000D01*
X2530000Y-15280000D02*
X12470000Y-15280000D01*
X12470000Y-19145000D02*
X12470000Y-15280000D01*
X8371000Y-27520000D02*
X9130000Y-27520000D01*
X12470000Y-27520000D02*
X12470000Y-23655000D01*
X5871000Y-27520000D02*
X6630000Y-27520000D01*
X10870000Y-27520000D02*
X12470000Y-27520000D01*
X2530000Y-27520000D02*
X2530000Y-23655000D01*
X2530000Y-27520000D02*
X4129000Y-27520000D01*
%TO.C,D2*%
X18850000Y-61250000D02*
X18850000Y-62400000D01*
X26150000Y-66750000D02*
X18850000Y-66750000D01*
X26150000Y-61250000D02*
X18850000Y-61250000D01*
%TO.C,SW4*%
X14730000Y-59030000D02*
X14730000Y-52570000D01*
X10200000Y-59030000D02*
X12800000Y-59030000D01*
X14730000Y-59030000D02*
X14700000Y-59030000D01*
X8270000Y-52570000D02*
X8300000Y-52570000D01*
X8300000Y-59030000D02*
X8270000Y-59030000D01*
X8270000Y-59030000D02*
X8270000Y-52570000D01*
X14730000Y-52570000D02*
X14700000Y-52570000D01*
X10200000Y-52570000D02*
X12800000Y-52570000D01*
%TO.C,J15*%
X29030000Y-76530000D02*
X29030000Y-73870000D01*
X17540000Y-76530000D02*
X16210000Y-76530000D01*
X18810000Y-73870000D02*
X29030000Y-73870000D01*
X16210000Y-76530000D02*
X16210000Y-75200000D01*
X18810000Y-76530000D02*
X18810000Y-73870000D01*
X18810000Y-76530000D02*
X29030000Y-76530000D01*
%TO.C,SW1*%
X21730000Y-52570000D02*
X21730000Y-59030000D01*
X21700000Y-52570000D02*
X21730000Y-52570000D01*
X19800000Y-52570000D02*
X17200000Y-52570000D01*
X15270000Y-59030000D02*
X15300000Y-59030000D01*
X21730000Y-59030000D02*
X21700000Y-59030000D01*
X15270000Y-52570000D02*
X15270000Y-59030000D01*
X19800000Y-59030000D02*
X17200000Y-59030000D01*
X15270000Y-52570000D02*
X15300000Y-52570000D01*
%TO.C,J13*%
X2300000Y-76530000D02*
X970000Y-76530000D01*
X13790000Y-76530000D02*
X13790000Y-73870000D01*
X3570000Y-73870000D02*
X13790000Y-73870000D01*
X970000Y-76530000D02*
X970000Y-75200000D01*
X3570000Y-76530000D02*
X13790000Y-76530000D01*
X3570000Y-76530000D02*
X3570000Y-73870000D01*
%TO.C,RV4*%
X27470000Y-27520000D02*
X27470000Y-23655000D01*
X17530000Y-27520000D02*
X19129000Y-27520000D01*
X20871000Y-27520000D02*
X21630000Y-27520000D01*
X23371000Y-27520000D02*
X24130000Y-27520000D01*
X27470000Y-19145000D02*
X27470000Y-15280000D01*
X17530000Y-27520000D02*
X17530000Y-23655000D01*
X17530000Y-19145000D02*
X17530000Y-15280000D01*
X17530000Y-15280000D02*
X27470000Y-15280000D01*
X25870000Y-27520000D02*
X27470000Y-27520000D01*
D11*
%TO.C,J9*%
X28500000Y-80500000D02*
X28500000Y-83400000D01*
X18000000Y-80500000D02*
X28500000Y-80500000D01*
X18000000Y-89500000D02*
X28500000Y-89500000D01*
X18000000Y-86500000D02*
X18000000Y-89500000D01*
X18000000Y-80500000D02*
X18000000Y-83500000D01*
X28500000Y-86600000D02*
X28500000Y-89500000D01*
D12*
X25395001Y-85000000D02*
G75*
G03*
X19911423Y-83703737I-2895001J0D01*
G01*
X19911424Y-86296263D02*
G75*
G03*
X25395000Y-85000000I2588576J1296263D01*
G01*
X24300000Y-85000000D02*
G75*
G03*
X24300000Y-85000000I-1800000J0D01*
G01*
%TO.C,J12*%
X13790000Y-70230000D02*
X13790000Y-67570000D01*
X3570000Y-70230000D02*
X13790000Y-70230000D01*
X3570000Y-70230000D02*
X3570000Y-67570000D01*
X970000Y-70230000D02*
X970000Y-68900000D01*
X3570000Y-67570000D02*
X13790000Y-67570000D01*
X2300000Y-70230000D02*
X970000Y-70230000D01*
%TD*%
%LPC*%
D13*
%TO.C,J8*%
X13980000Y-85000000D03*
D14*
X2580000Y-85000000D03*
X10880000Y-85000000D03*
%TD*%
D13*
%TO.C,J10*%
X13980000Y-94900000D03*
D14*
X2580000Y-94900000D03*
X10880000Y-94900000D03*
%TD*%
D15*
%TO.C,SW3*%
X6750000Y-59775000D03*
X6750000Y-51825000D03*
X2250000Y-59775000D03*
X2250000Y-51825000D03*
%TD*%
D16*
%TO.C,D1*%
X9950000Y-65600000D03*
X9950000Y-62400000D03*
X5050000Y-62400000D03*
X5050000Y-65600000D03*
%TD*%
D13*
%TO.C,J1*%
X13980000Y-35600000D03*
D14*
X2580000Y-35600000D03*
X10880000Y-35600000D03*
%TD*%
D15*
%TO.C,SW2*%
X23250000Y-51825000D03*
X23250000Y-59775000D03*
X27750000Y-51825000D03*
X27750000Y-59775000D03*
%TD*%
D17*
%TO.C,RV2*%
X18100000Y-6700000D03*
X26900000Y-6700000D03*
D18*
X25000000Y-13700000D03*
X22500000Y-13700000D03*
X20000000Y-13700000D03*
%TD*%
D13*
%TO.C,J2*%
X13980000Y-45700000D03*
D14*
X2580000Y-45700000D03*
X10880000Y-45700000D03*
%TD*%
D17*
%TO.C,RV1*%
X11900000Y-6700000D03*
X3100000Y-6700000D03*
D18*
X10000000Y-13700000D03*
X7500000Y-13700000D03*
X5000000Y-13700000D03*
%TD*%
D19*
%TO.C,J17*%
X15000000Y-62758000D03*
D20*
X15000000Y-65298000D03*
%TD*%
D13*
%TO.C,J11*%
X16020000Y-94900000D03*
D21*
X27420000Y-94900000D03*
X19120000Y-94900000D03*
%TD*%
D19*
%TO.C,J16*%
X17540000Y-68900000D03*
D20*
X20080000Y-68900000D03*
X22620000Y-68900000D03*
X25160000Y-68900000D03*
X27700000Y-68900000D03*
%TD*%
D13*
%TO.C,J3*%
X16020000Y-45700000D03*
D21*
X27420000Y-45700000D03*
X19120000Y-45700000D03*
%TD*%
D17*
%TO.C,RV3*%
X11900000Y-21400000D03*
X3100000Y-21400000D03*
D18*
X10000000Y-28400000D03*
X7500000Y-28400000D03*
X5000000Y-28400000D03*
%TD*%
D16*
%TO.C,D2*%
X24950000Y-65600000D03*
X24950000Y-62400000D03*
X20050000Y-62400000D03*
X20050000Y-65600000D03*
%TD*%
D15*
%TO.C,SW4*%
X13750000Y-59775000D03*
X13750000Y-51825000D03*
X9250000Y-59775000D03*
X9250000Y-51825000D03*
%TD*%
D19*
%TO.C,J15*%
X17540000Y-75200000D03*
D20*
X20080000Y-75200000D03*
X22620000Y-75200000D03*
X25160000Y-75200000D03*
X27700000Y-75200000D03*
%TD*%
D15*
%TO.C,SW1*%
X16250000Y-51825000D03*
X16250000Y-59775000D03*
X20750000Y-51825000D03*
X20750000Y-59775000D03*
%TD*%
D19*
%TO.C,J13*%
X2300000Y-75200000D03*
D20*
X4840000Y-75200000D03*
X7380000Y-75200000D03*
X9920000Y-75200000D03*
X12460000Y-75200000D03*
%TD*%
D17*
%TO.C,RV4*%
X26900000Y-21400000D03*
X18100000Y-21400000D03*
D18*
X25000000Y-28400000D03*
X22500000Y-28400000D03*
X20000000Y-28400000D03*
%TD*%
D13*
%TO.C,J9*%
X16020000Y-85000000D03*
D21*
X27420000Y-85000000D03*
X19120000Y-85000000D03*
%TD*%
D19*
%TO.C,J12*%
X2300000Y-68900000D03*
D20*
X4840000Y-68900000D03*
X7380000Y-68900000D03*
X9920000Y-68900000D03*
X12460000Y-68900000D03*
%TD*%
D19*
%TO.C,J14*%
X17540000Y-71300000D03*
D20*
X20080000Y-71300000D03*
X22620000Y-71300000D03*
X25160000Y-71300000D03*
X27700000Y-71300000D03*
%TD*%
D19*
%TO.C,J7*%
X2300000Y-79250000D03*
D20*
X4840000Y-79250000D03*
X7380000Y-79250000D03*
X9920000Y-79250000D03*
X12460000Y-79250000D03*
%TD*%
D19*
%TO.C,J6*%
X2300000Y-71500000D03*
D20*
X4840000Y-71500000D03*
X7380000Y-71500000D03*
X9920000Y-71500000D03*
X12460000Y-71500000D03*
%TD*%
D19*
%TO.C,J4*%
X17540000Y-31600000D03*
D20*
X20080000Y-31600000D03*
X22620000Y-31600000D03*
X25160000Y-31600000D03*
X27700000Y-31600000D03*
%TD*%
D19*
%TO.C,J18*%
X17540000Y-35000000D03*
D20*
X20080000Y-35000000D03*
X22620000Y-35000000D03*
X25160000Y-35000000D03*
X27700000Y-35000000D03*
%TD*%
D19*
%TO.C,J5*%
X17540000Y-79250000D03*
D20*
X20080000Y-79250000D03*
X22620000Y-79250000D03*
X25160000Y-79250000D03*
X27700000Y-79250000D03*
%TD*%
M02*
